<svg width="127" height="31" viewBox="0 0 127 31" fill="none" xmlns="http://www.w3.org/2000/svg">
    <path d="M5.00391 17.6758L16.5273 22.0508V26.7969L0.179688 19.5117V15.7422L16.5273 8.47656V13.2227L5.00391 17.6758ZM26.4102 11.1719C27.9596 9.375 29.9193 8.47656 32.2891 8.47656C36.7943 8.47656 39.0794 11.0482 39.1445 16.1914V30H34.3984V16.3672C34.3984 14.9089 34.0794 13.8802 33.4414 13.2812C32.8164 12.6693 31.8919 12.3633 30.668 12.3633C28.7669 12.3633 27.3477 13.2096 26.4102 14.9023V30H21.6641V0H26.4102V11.1719ZM53.2656 30.3906C50.2578 30.3906 47.8164 29.4466 45.9414 27.5586C44.0794 25.6576 43.1484 23.1315 43.1484 19.9805V19.3945C43.1484 17.2852 43.5521 15.4036 44.3594 13.75C45.1797 12.0833 46.3255 10.7878 47.7969 9.86328C49.2682 8.9388 50.9089 8.47656 52.7188 8.47656C55.5964 8.47656 57.8164 9.39453 59.3789 11.2305C60.9544 13.0664 61.7422 15.6641 61.7422 19.0234V20.9375H47.9336C48.0768 22.6823 48.6562 24.0625 49.6719 25.0781C50.7005 26.0938 51.9896 26.6016 53.5391 26.6016C55.7135 26.6016 57.4844 25.7227 58.8516 23.9648L61.4102 26.4062C60.5638 27.6693 59.431 28.6523 58.0117 29.3555C56.6055 30.0456 55.0234 30.3906 53.2656 30.3906ZM52.6992 12.2852C51.3971 12.2852 50.3424 12.7409 49.5352 13.6523C48.7409 14.5638 48.2331 15.8333 48.0117 17.4609H57.0547V17.1094C56.9505 15.5208 56.5273 14.3229 55.7852 13.5156C55.043 12.6953 54.0143 12.2852 52.6992 12.2852ZM78.0703 30C77.862 29.5964 77.6797 28.9388 77.5234 28.0273C76.013 29.6029 74.1641 30.3906 71.9766 30.3906C69.8542 30.3906 68.1224 29.7852 66.7812 28.5742C65.4401 27.3633 64.7695 25.8659 64.7695 24.082C64.7695 21.8294 65.6029 20.1042 67.2695 18.9062C68.9492 17.6953 71.3451 17.0898 74.457 17.0898H77.3672V15.7031C77.3672 14.6094 77.0612 13.737 76.4492 13.0859C75.8372 12.4219 74.9062 12.0898 73.6562 12.0898C72.5755 12.0898 71.6901 12.3633 71 12.9102C70.3099 13.444 69.9648 14.1276 69.9648 14.9609H65.2188C65.2188 13.8021 65.6029 12.7214 66.3711 11.7188C67.1393 10.7031 68.181 9.90885 69.4961 9.33594C70.8242 8.76302 72.3021 8.47656 73.9297 8.47656C76.4036 8.47656 78.3763 9.10156 79.8477 10.3516C81.319 11.5885 82.0742 13.3333 82.1133 15.5859V25.1172C82.1133 27.0182 82.3802 28.5352 82.9141 29.668V30H78.0703ZM72.8555 26.582C73.793 26.582 74.6719 26.3542 75.4922 25.8984C76.3255 25.4427 76.9505 24.8307 77.3672 24.0625V20.0781H74.8086C73.0508 20.0781 71.7292 20.3841 70.8438 20.9961C69.9583 21.6081 69.5156 22.474 69.5156 23.5938C69.5156 24.5052 69.8151 25.2344 70.4141 25.7812C71.026 26.3151 71.8398 26.582 72.8555 26.582ZM86.1953 19.2773C86.1953 16.0221 86.9505 13.4115 88.4609 11.4453C89.9714 9.46615 91.9961 8.47656 94.5352 8.47656C96.7747 8.47656 98.5846 9.25781 99.9648 10.8203V0H104.711V30H100.414L100.18 27.8125C98.7604 29.5312 96.8659 30.3906 94.4961 30.3906C92.0221 30.3906 90.0169 29.3945 88.4805 27.4023C86.957 25.4102 86.1953 22.7018 86.1953 19.2773ZM90.9414 19.6875C90.9414 21.8359 91.3516 23.5156 92.1719 24.7266C93.0052 25.9245 94.1836 26.5234 95.707 26.5234C97.6471 26.5234 99.0664 25.6576 99.9648 23.9258V14.9023C99.0924 13.2096 97.6862 12.3633 95.7461 12.3633C94.2096 12.3633 93.0247 12.9753 92.1914 14.1992C91.3581 15.4102 90.9414 17.2396 90.9414 19.6875ZM121.801 17.5781L109.73 13.1445V8.47656L126.605 15.7422V19.5117L109.73 26.7773V22.1094L121.801 17.5781Z" fill="white" fill-opacity="0.12"/>
</svg>
