<svg width="127" height="39" viewBox="0 0 127 39" fill="none" xmlns="http://www.w3.org/2000/svg">
    <path d="M5.27734 17.6758L16.8008 22.0508V26.7969L0.453125 19.5117V15.7422L16.8008 8.47656V13.2227L5.27734 17.6758ZM40.5508 19.6484C40.5508 22.9297 39.8151 25.5404 38.3438 27.4805C36.8854 29.4206 34.8737 30.3906 32.3086 30.3906C29.8346 30.3906 27.9076 29.4987 26.5273 27.7148L26.293 30H21.9961V0H26.7422V10.8984C28.1094 9.28385 29.9518 8.47656 32.2695 8.47656C34.8477 8.47656 36.8724 9.43359 38.3438 11.3477C39.8151 13.2617 40.5508 15.9375 40.5508 19.375V19.6484ZM35.8047 19.2383C35.8047 16.9466 35.401 15.2279 34.5938 14.082C33.7865 12.9362 32.6146 12.3633 31.0781 12.3633C29.0208 12.3633 27.5755 13.2617 26.7422 15.0586V23.7695C27.5885 25.6055 29.0469 26.5234 31.1172 26.5234C32.6016 26.5234 33.7474 25.9701 34.5547 24.8633C35.362 23.7565 35.7786 22.0833 35.8047 19.8438V19.2383ZM43.6562 19.2383C43.6562 17.168 44.0664 15.306 44.8867 13.6523C45.707 11.9857 46.8594 10.7096 48.3438 9.82422C49.8281 8.92578 51.5339 8.47656 53.4609 8.47656C56.3125 8.47656 58.6237 9.39453 60.3945 11.2305C62.1784 13.0664 63.1419 15.5013 63.2852 18.5352L63.3047 19.6484C63.3047 21.7318 62.901 23.5938 62.0938 25.2344C61.2995 26.875 60.1536 28.1445 58.6562 29.043C57.1719 29.9414 55.4531 30.3906 53.5 30.3906C50.5182 30.3906 48.1289 29.401 46.332 27.4219C44.5482 25.4297 43.6562 22.7799 43.6562 19.4727V19.2383ZM48.4023 19.6484C48.4023 21.8229 48.8516 23.5286 49.75 24.7656C50.6484 25.9896 51.8984 26.6016 53.5 26.6016C55.1016 26.6016 56.3451 25.9766 57.2305 24.7266C58.1289 23.4766 58.5781 21.6471 58.5781 19.2383C58.5781 17.1029 58.1159 15.4102 57.1914 14.1602C56.2799 12.9102 55.0365 12.2852 53.4609 12.2852C51.9115 12.2852 50.681 12.9036 49.7695 14.1406C48.8581 15.3646 48.4023 17.2005 48.4023 19.6484ZM66.4297 19.2773C66.4297 16.0221 67.1849 13.4115 68.6953 11.4453C70.2057 9.46615 72.2305 8.47656 74.7695 8.47656C77.0091 8.47656 78.819 9.25781 80.1992 10.8203V0H84.9453V30H80.6484L80.4141 27.8125C78.9948 29.5312 77.1003 30.3906 74.7305 30.3906C72.2565 30.3906 70.2513 29.3945 68.7148 27.4023C67.1914 25.4102 66.4297 22.7018 66.4297 19.2773ZM71.1758 19.6875C71.1758 21.8359 71.5859 23.5156 72.4062 24.7266C73.2396 25.9245 74.418 26.5234 75.9414 26.5234C77.8815 26.5234 79.3008 25.6576 80.1992 23.9258V14.9023C79.3268 13.2096 77.9206 12.3633 75.9805 12.3633C74.444 12.3633 73.2591 12.9753 72.4258 14.1992C71.5924 15.4102 71.1758 17.2396 71.1758 19.6875ZM97.2891 23.2031L101.586 8.86719H106.645L98.2461 33.2031C96.957 36.7578 94.7695 38.5352 91.6836 38.5352C90.9935 38.5352 90.2318 38.418 89.3984 38.1836V34.5117L90.2969 34.5703C91.4948 34.5703 92.3932 34.349 92.9922 33.9062C93.6042 33.4766 94.0859 32.7474 94.4375 31.7188L95.1211 29.9023L87.6992 8.86719H92.8164L97.2891 23.2031ZM121.527 17.5781L109.457 13.1445V8.47656L126.332 15.7422V19.5117L109.457 26.7773V22.1094L121.527 17.5781Z" fill="white" fill-opacity="0.12"/>
</svg>
