<svg width="125" height="39" viewBox="0 0 125 39" fill="none" xmlns="http://www.w3.org/2000/svg">
    <path d="M5.37109 17.6758L16.8945 22.0508V26.7969L0.546875 19.5117V15.7422L16.8945 8.47656V13.2227L5.37109 17.6758ZM33.9453 24.2578C33.9453 23.4115 33.5938 22.7669 32.8906 22.3242C32.2005 21.8815 31.0482 21.4909 29.4336 21.1523C27.819 20.8138 26.4714 20.3841 25.3906 19.8633C23.0208 18.7174 21.8359 17.0573 21.8359 14.8828C21.8359 13.0599 22.6042 11.5365 24.1406 10.3125C25.6771 9.08854 27.6302 8.47656 30 8.47656C32.526 8.47656 34.5638 9.10156 36.1133 10.3516C37.6758 11.6016 38.457 13.2227 38.457 15.2148H33.7109C33.7109 14.3034 33.3724 13.5482 32.6953 12.9492C32.0182 12.3372 31.1198 12.0312 30 12.0312C28.9583 12.0312 28.1055 12.2721 27.4414 12.7539C26.7904 13.2357 26.4648 13.8802 26.4648 14.6875C26.4648 15.4167 26.7708 15.9831 27.3828 16.3867C27.9948 16.7904 29.2318 17.2005 31.0938 17.6172C32.9557 18.0208 34.4141 18.5091 35.4688 19.082C36.5365 19.6419 37.3242 20.319 37.832 21.1133C38.3529 21.9076 38.6133 22.8711 38.6133 24.0039C38.6133 25.9049 37.8255 27.4479 36.25 28.6328C34.6745 29.8047 32.6107 30.3906 30.0586 30.3906C28.3268 30.3906 26.7839 30.0781 25.4297 29.4531C24.0755 28.8281 23.0208 27.9688 22.2656 26.875C21.5104 25.7812 21.1328 24.6029 21.1328 23.3398H25.7422C25.8073 24.4596 26.2305 25.3255 27.0117 25.9375C27.793 26.5365 28.8281 26.8359 30.1172 26.8359C31.3672 26.8359 32.3177 26.6016 32.9688 26.1328C33.6198 25.651 33.9453 25.026 33.9453 24.2578ZM48.7109 3.73047V8.86719H52.4414V12.3828H48.7109V24.1797C48.7109 24.987 48.8672 25.5729 49.1797 25.9375C49.5052 26.2891 50.0781 26.4648 50.8984 26.4648C51.4453 26.4648 51.9987 26.3997 52.5586 26.2695V29.9414C51.4779 30.2409 50.4362 30.3906 49.4336 30.3906C45.7878 30.3906 43.9648 28.3789 43.9648 24.3555V12.3828H40.4883V8.86719H43.9648V3.73047H48.7109ZM63.4766 23.2031L67.7734 8.86719H72.832L64.4336 33.2031C63.1445 36.7578 60.957 38.5352 57.8711 38.5352C57.181 38.5352 56.4193 38.418 55.5859 38.1836V34.5117L56.4844 34.5703C57.6823 34.5703 58.5807 34.349 59.1797 33.9062C59.7917 33.4766 60.2734 32.7474 60.625 31.7188L61.3086 29.9023L53.8867 8.86719H59.0039L63.4766 23.2031ZM80.625 30H75.8789V0H80.625V30ZM95.1172 30.3906C92.1094 30.3906 89.668 29.4466 87.793 27.5586C85.931 25.6576 85 23.1315 85 19.9805V19.3945C85 17.2852 85.4036 15.4036 86.2109 13.75C87.0312 12.0833 88.1771 10.7878 89.6484 9.86328C91.1198 8.9388 92.7604 8.47656 94.5703 8.47656C97.4479 8.47656 99.668 9.39453 101.23 11.2305C102.806 13.0664 103.594 15.6641 103.594 19.0234V20.9375H89.7852C89.9284 22.6823 90.5078 24.0625 91.5234 25.0781C92.5521 26.0938 93.8411 26.6016 95.3906 26.6016C97.5651 26.6016 99.3359 25.7227 100.703 23.9648L103.262 26.4062C102.415 27.6693 101.283 28.6523 99.8633 29.3555C98.457 30.0456 96.875 30.3906 95.1172 30.3906ZM94.5508 12.2852C93.2487 12.2852 92.194 12.7409 91.3867 13.6523C90.5924 14.5638 90.0846 15.8333 89.8633 17.4609H98.9062V17.1094C98.8021 15.5208 98.3789 14.3229 97.6367 13.5156C96.8945 12.6953 95.8659 12.2852 94.5508 12.2852ZM119.434 17.5781L107.363 13.1445V8.47656L124.238 15.7422V19.5117L107.363 26.7773V22.1094L119.434 17.5781Z" fill="white" fill-opacity="0.12"/>
</svg>
