<svg width="491" height="66" viewBox="0 0 491 66" fill="none" xmlns="http://www.w3.org/2000/svg">
    <g filter="url(#filter0_d)">
    <rect x="4.77246" y="57.8911" width="57.5743" height="482.227" rx="10" transform="rotate(-90 4.77246 57.8911)" fill="url(#paint0_linear)"/>
    <path d="M212.597 32.0601C212.597 31.3413 212.343 30.7873 211.834 30.3979C211.332 30.0086 210.422 29.6156 209.105 29.2188C207.787 28.8219 206.739 28.3802 205.96 27.8936C204.47 26.9577 203.725 25.7373 203.725 24.2324C203.725 22.9147 204.261 21.8291 205.331 20.9756C206.409 20.1221 207.806 19.6953 209.52 19.6953C210.658 19.6953 211.673 19.9049 212.564 20.3242C213.455 20.7435 214.155 21.3424 214.664 22.1211C215.173 22.8923 215.427 23.7495 215.427 24.6929H212.597C212.597 23.8394 212.328 23.173 211.789 22.6938C211.257 22.2072 210.493 21.9639 209.498 21.9639C208.569 21.9639 207.847 22.1623 207.33 22.5591C206.821 22.9559 206.567 23.5099 206.567 24.2212C206.567 24.8201 206.844 25.3218 207.398 25.7261C207.952 26.1229 208.865 26.5122 210.138 26.894C211.411 27.2684 212.433 27.6989 213.204 28.1855C213.975 28.6647 214.54 29.2188 214.9 29.8477C215.259 30.4691 215.439 31.1991 215.439 32.0376C215.439 33.4002 214.914 34.4858 213.866 35.2944C212.826 36.0955 211.411 36.4961 209.621 36.4961C208.438 36.4961 207.349 36.279 206.353 35.8447C205.365 35.403 204.594 34.7965 204.04 34.0254C203.493 33.2542 203.22 32.3558 203.22 31.3301H206.061C206.061 32.2585 206.368 32.9772 206.982 33.4863C207.596 33.9954 208.476 34.25 209.621 34.25C210.609 34.25 211.351 34.0516 211.845 33.6548C212.346 33.2505 212.597 32.7189 212.597 32.0601ZM220.571 36.2715H217.842V24.1201H220.571V36.2715ZM217.673 20.9644C217.673 20.5451 217.804 20.1969 218.067 19.9199C218.336 19.6429 218.718 19.5044 219.212 19.5044C219.706 19.5044 220.088 19.6429 220.358 19.9199C220.627 20.1969 220.762 20.5451 220.762 20.9644C220.762 21.3761 220.627 21.7205 220.358 21.9976C220.088 22.2671 219.706 22.4019 219.212 22.4019C218.718 22.4019 218.336 22.2671 218.067 21.9976C217.804 21.7205 217.673 21.3761 217.673 20.9644ZM223.075 30.106C223.075 28.2192 223.517 26.7144 224.4 25.5913C225.291 24.4608 226.471 23.8955 227.938 23.8955C229.323 23.8955 230.413 24.3784 231.206 25.3442L231.33 24.1201H233.789V35.9009C233.789 37.4956 233.291 38.7534 232.296 39.6743C231.307 40.5952 229.971 41.0557 228.286 41.0557C227.395 41.0557 226.523 40.8685 225.67 40.4941C224.824 40.1273 224.18 39.6444 223.738 39.0454L225.029 37.4058C225.868 38.4015 226.901 38.8994 228.129 38.8994C229.035 38.8994 229.75 38.6523 230.274 38.1582C230.798 37.6715 231.06 36.9528 231.06 36.002V35.1821C230.274 36.0581 229.226 36.4961 227.916 36.4961C226.493 36.4961 225.329 35.9308 224.423 34.8003C223.525 33.6698 223.075 32.105 223.075 30.106ZM225.793 30.3418C225.793 31.5622 226.04 32.5243 226.534 33.228C227.036 33.9243 227.728 34.2725 228.612 34.2725C229.713 34.2725 230.529 33.8008 231.06 32.8574V27.5117C230.544 26.5908 229.735 26.1304 228.634 26.1304C227.736 26.1304 227.036 26.486 226.534 27.1973C226.04 27.9085 225.793 28.9567 225.793 30.3418ZM239.135 24.1201L239.213 25.5239C240.112 24.4383 241.291 23.8955 242.751 23.8955C245.282 23.8955 246.569 25.3442 246.614 28.2417V36.2715H243.885V28.3989C243.885 27.6278 243.717 27.0588 243.38 26.6919C243.051 26.3175 242.508 26.1304 241.752 26.1304C240.651 26.1304 239.831 26.6283 239.292 27.624V36.2715H236.563V24.1201H239.135ZM262.494 35.0811C261.693 36.0244 260.555 36.4961 259.08 36.4961C257.762 36.4961 256.763 36.1105 256.082 35.3394C255.408 34.5682 255.071 33.4526 255.071 31.9927V24.1201H257.8V31.959C257.8 33.5013 258.44 34.2725 259.72 34.2725C261.046 34.2725 261.94 33.797 262.404 32.8462V24.1201H265.133V36.2715H262.562L262.494 35.0811ZM278.554 30.3193C278.554 32.1986 278.127 33.6997 277.274 34.8228C276.42 35.9383 275.275 36.4961 273.837 36.4961C272.504 36.4961 271.437 36.0581 270.636 35.1821V40.9434H267.907V24.1201H270.423L270.535 25.3555C271.336 24.3822 272.426 23.8955 273.803 23.8955C275.286 23.8955 276.446 24.4495 277.285 25.5576C278.131 26.6582 278.554 28.1893 278.554 30.1509V30.3193ZM275.836 30.0835C275.836 28.8706 275.593 27.9085 275.106 27.1973C274.627 26.486 273.938 26.1304 273.04 26.1304C271.924 26.1304 271.123 26.5908 270.636 27.5117V32.9023C271.13 33.8457 271.939 34.3174 273.062 34.3174C273.931 34.3174 274.608 33.9692 275.095 33.2729C275.589 32.5692 275.836 31.506 275.836 30.0835Z" fill="white"/>
    </g>
    <defs>
    <filter id="filter0_d" x="0.772461" y="0.316895" width="490.227" height="65.5743" filterUnits="userSpaceOnUse" color-interpolation-filters="sRGB">
    <feFlood flood-opacity="0" result="BackgroundImageFix"/>
    <feColorMatrix in="SourceAlpha" type="matrix" values="0 0 0 0 0 0 0 0 0 0 0 0 0 0 0 0 0 0 127 0"/>
    <feOffset dy="4"/>
    <feGaussianBlur stdDeviation="2"/>
    <feColorMatrix type="matrix" values="0 0 0 0 0 0 0 0 0 0 0 0 0 0 0 0 0 0 0.25 0"/>
    <feBlend mode="normal" in2="BackgroundImageFix" result="effect1_dropShadow"/>
    <feBlend mode="normal" in="SourceGraphic" in2="effect1_dropShadow" result="shape"/>
    </filter>
    <linearGradient id="paint0_linear" x1="33.5596" y1="57.8911" x2="33.5596" y2="540.118" gradientUnits="userSpaceOnUse">
    <stop stop-color="#8944FA"/>
    <stop offset="0.473958" stop-color="#4B5DFC"/>
    <stop offset="0.661458" stop-color="#3086FD"/>
    <stop offset="1" stop-color="#00D1FF"/>
    </linearGradient>
    </defs>
</svg>
