<svg width="154" height="48" viewBox="0 0 154 48" fill="none" xmlns="http://www.w3.org/2000/svg">
    <g filter="url(#filter0_d)">
    <rect x="4" y="40" width="40" height="146" rx="10" transform="rotate(-90 4 40)" fill="url(#paint0_linear)"/>
    <path d="M51.3657 24.7314H58.7891V27H48.5244V10.6484H51.3657V24.7314ZM60.1929 20.812C60.1929 19.6216 60.4287 18.5509 60.9004 17.6001C61.3721 16.6418 62.0347 15.908 62.8882 15.3989C63.7417 14.8823 64.7225 14.624 65.8306 14.624C67.4702 14.624 68.7992 15.1519 69.8174 16.2075C70.8431 17.2632 71.3971 18.6632 71.4795 20.4077L71.4907 21.0479C71.4907 22.2458 71.2586 23.3164 70.7944 24.2598C70.3377 25.2031 69.6789 25.9331 68.8179 26.4497C67.9644 26.9663 66.9761 27.2246 65.853 27.2246C64.1385 27.2246 62.7646 26.6556 61.7314 25.5176C60.7057 24.3721 60.1929 22.8485 60.1929 20.9468V20.812ZM62.9219 21.0479C62.9219 22.2982 63.1802 23.279 63.6968 23.9902C64.2134 24.694 64.9321 25.0459 65.853 25.0459C66.7739 25.0459 67.4889 24.6865 67.998 23.9678C68.5146 23.249 68.7729 22.1971 68.7729 20.812C68.7729 19.5841 68.5072 18.6108 67.9756 17.8921C67.4515 17.1733 66.7365 16.814 65.8306 16.814C64.9396 16.814 64.2321 17.1696 63.708 17.8809C63.1839 18.5846 62.9219 19.6403 62.9219 21.0479ZM73.3213 20.8345C73.3213 18.9478 73.763 17.4429 74.6465 16.3198C75.5374 15.1893 76.7166 14.624 78.1841 14.624C79.5692 14.624 80.6585 15.1069 81.4521 16.0728L81.5757 14.8486H84.0352V26.6294C84.0352 28.2241 83.5373 29.4819 82.5415 30.4028C81.5532 31.3237 80.2168 31.7842 78.5322 31.7842C77.6413 31.7842 76.769 31.597 75.9155 31.2227C75.0695 30.8558 74.4256 30.3729 73.9839 29.7739L75.2754 28.1343C76.1139 29.13 77.1471 29.6279 78.375 29.6279C79.2809 29.6279 79.9959 29.3809 80.52 28.8867C81.0441 28.4001 81.3062 27.6813 81.3062 26.7305V25.9106C80.52 26.7866 79.4718 27.2246 78.1616 27.2246C76.7391 27.2246 75.5749 26.6593 74.6689 25.5288C73.7705 24.3983 73.3213 22.8335 73.3213 20.8345ZM76.0391 21.0703C76.0391 22.2907 76.2861 23.2528 76.7803 23.9565C77.2819 24.6528 77.9744 25.001 78.8579 25.001C79.9585 25.001 80.7746 24.5293 81.3062 23.5859V18.2402C80.7896 17.3193 79.981 16.8589 78.8804 16.8589C77.9819 16.8589 77.2819 17.2145 76.7803 17.9258C76.2861 18.637 76.0391 19.6852 76.0391 21.0703ZM89.7515 27H87.0225V14.8486H89.7515V27ZM86.854 11.6929C86.854 11.2736 86.985 10.9255 87.2471 10.6484C87.5166 10.3714 87.8984 10.2329 88.3926 10.2329C88.8867 10.2329 89.2686 10.3714 89.5381 10.6484C89.8076 10.9255 89.9424 11.2736 89.9424 11.6929C89.9424 12.1047 89.8076 12.4491 89.5381 12.7261C89.2686 12.9956 88.8867 13.1304 88.3926 13.1304C87.8984 13.1304 87.5166 12.9956 87.2471 12.7261C86.985 12.4491 86.854 12.1047 86.854 11.6929ZM95.2656 14.8486L95.3442 16.2524C96.2427 15.1668 97.4219 14.624 98.8818 14.624C101.412 14.624 102.7 16.0728 102.745 18.9702V27H100.016V19.1274C100.016 18.3563 99.8477 17.7873 99.5107 17.4204C99.1813 17.0461 98.6385 16.8589 97.8823 16.8589C96.7817 16.8589 95.9619 17.3568 95.4229 18.3525V27H92.6938V14.8486H95.2656Z" fill="white"/>
    </g>
    <defs>
    <filter id="filter0_d" x="0" y="0" width="154" height="48" filterUnits="userSpaceOnUse" color-interpolation-filters="sRGB">
    <feFlood flood-opacity="0" result="BackgroundImageFix"/>
    <feColorMatrix in="SourceAlpha" type="matrix" values="0 0 0 0 0 0 0 0 0 0 0 0 0 0 0 0 0 0 127 0"/>
    <feOffset dy="4"/>
    <feGaussianBlur stdDeviation="2"/>
    <feColorMatrix type="matrix" values="0 0 0 0 0 0 0 0 0 0 0 0 0 0 0 0 0 0 0.25 0"/>
    <feBlend mode="normal" in2="BackgroundImageFix" result="effect1_dropShadow"/>
    <feBlend mode="normal" in="SourceGraphic" in2="effect1_dropShadow" result="shape"/>
    </filter>
    <linearGradient id="paint0_linear" x1="24" y1="40" x2="24" y2="186" gradientUnits="userSpaceOnUse">
    <stop stop-color="#8944FA"/>
    <stop offset="0.473958" stop-color="#4B5DFC"/>
    <stop offset="0.661458" stop-color="#3086FD"/>
    <stop offset="1" stop-color="#00D1FF"/>
    </linearGradient>
    </defs>
</svg>
