<svg width="146" height="40" viewBox="0 0 146 40" fill="none" xmlns="http://www.w3.org/2000/svg">
    <rect y="40" width="40" height="146" rx="10" transform="rotate(-90 0 40)" fill="url(#paint0_linear)"/>
    <path d="M37.1137 11.54V29.52H38.7537V11.54H37.1137ZM29.2937 12.92C26.6337 12.92 24.7337 15.36 24.7337 19.18C24.7337 23 26.6337 25.44 29.2937 25.44C31.9537 25.44 33.8537 23 33.8537 19.18C33.8537 15.36 31.9537 12.92 29.2937 12.92ZM29.2937 14.4C31.0337 14.4 32.2737 16.28 32.2737 19.18C32.2737 22.1 31.0337 23.98 29.2937 23.98C27.5337 23.98 26.2937 22.1 26.2937 19.18C26.2937 16.28 27.5337 14.4 29.2937 14.4ZM47.2721 23.98C45.5521 23.98 44.3521 22.1 44.3521 19.18C44.3521 16.28 45.5521 14.4 47.2721 14.4C48.9721 14.4 50.1721 16.28 50.1721 19.18C50.1721 22.1 48.9721 23.98 47.2721 23.98ZM55.6121 11.54V18.38H51.7121C51.4521 15.02 49.6921 12.92 47.2721 12.92C44.6521 12.92 42.7921 15.36 42.7921 19.18C42.7921 23 44.6521 25.44 47.2721 25.44C49.7721 25.44 51.5521 23.24 51.7121 19.72H55.6121V29.52H57.2521V11.54H55.6121ZM67.1505 13.08H65.5105V16.3C65.5105 19.62 63.4705 23.08 60.8705 24.38L61.8705 25.68C63.8905 24.6 65.5505 22.34 66.3305 19.68C67.1505 22.2 68.7905 24.34 70.8305 25.36L71.7905 24.06C69.1905 22.82 67.1505 19.56 67.1505 16.3V13.08ZM74.0105 11.54V17.62H69.8505V18.96H74.0105V29.5H75.6505V11.54H74.0105ZM98.9695 11.56H97.3295V24.68H98.9695V11.56ZM95.2095 20.82C92.5695 19.94 90.7095 17.76 90.7095 15.34V14.36H94.7695V13.04H84.9295V14.36H89.0295V15.34C89.0295 17.9 87.2095 20.24 84.4895 21.18L85.3495 22.46C87.4695 21.7 89.1295 20.08 89.8895 18.04C90.7095 19.92 92.3495 21.4 94.4095 22.12L95.2095 20.82ZM89.0695 27.74V23.44H87.4295V29.08H99.5095V27.74H89.0695ZM113.928 17.76H116.208V22.9H117.788V11.54H116.208V16.42H113.928V11.88H112.368V22.24H113.928V17.76ZM111.648 13.68H107.928V11.68H106.308V13.68H102.548V14.98H111.668L111.648 13.68ZM104.768 18.98C104.768 17.88 105.708 17.14 107.128 17.14C108.528 17.14 109.488 17.88 109.488 18.98C109.488 20.1 108.528 20.84 107.128 20.84C105.708 20.84 104.768 20.1 104.768 18.98ZM110.948 18.98C110.948 17.14 109.388 15.92 107.128 15.92C104.868 15.92 103.288 17.14 103.288 18.98C103.288 20.86 104.868 22.06 107.128 22.06C109.388 22.06 110.948 20.86 110.948 18.98ZM111.888 28.2C109.148 28.2 107.508 27.52 107.508 26.34C107.508 25.14 109.148 24.46 111.888 24.46C114.608 24.46 116.248 25.14 116.248 26.34C116.248 27.52 114.608 28.2 111.888 28.2ZM111.888 23.2C108.148 23.2 105.888 24.32 105.888 26.34C105.888 28.34 108.148 29.46 111.888 29.46C115.628 29.46 117.888 28.34 117.888 26.34C117.888 24.32 115.628 23.2 111.888 23.2Z" fill="white"/>
    <defs>
    <linearGradient id="paint0_linear" x1="20" y1="40" x2="20" y2="186" gradientUnits="userSpaceOnUse">
    <stop stop-color="#8944FA"/>
    <stop offset="0.473958" stop-color="#4B5DFC"/>
    <stop offset="0.661458" stop-color="#3086FD"/>
    <stop offset="1" stop-color="#00D1FF"/>
    </linearGradient>
    </defs>
</svg>
