<svg width="165" height="48" viewBox="0 0 165 48" fill="none" xmlns="http://www.w3.org/2000/svg">
    <g filter="url(#filter0_d)">
    <rect x="4" y="40" width="40" height="157" rx="10" transform="rotate(-90 4 40)" fill="url(#paint0_linear)"/>
    <path d="M66.7383 27H63.9082V19.7339H56.5972V27H53.7559V10.6484H56.5972V17.4541H63.9082V10.6484H66.7383V27ZM69.3325 20.812C69.3325 19.6216 69.5684 18.5509 70.04 17.6001C70.5117 16.6418 71.1743 15.908 72.0278 15.3989C72.8813 14.8823 73.8621 14.624 74.9702 14.624C76.6099 14.624 77.9388 15.1519 78.957 16.2075C79.9827 17.2632 80.5368 18.6632 80.6191 20.4077L80.6304 21.0479C80.6304 22.2458 80.3983 23.3164 79.9341 24.2598C79.4774 25.2031 78.8185 25.9331 77.9575 26.4497C77.104 26.9663 76.1157 27.2246 74.9927 27.2246C73.2782 27.2246 71.9043 26.6556 70.8711 25.5176C69.8454 24.3721 69.3325 22.8485 69.3325 20.9468V20.812ZM72.0615 21.0479C72.0615 22.2982 72.3198 23.279 72.8364 23.9902C73.353 24.694 74.0718 25.0459 74.9927 25.0459C75.9136 25.0459 76.6286 24.6865 77.1377 23.9678C77.6543 23.249 77.9126 22.1971 77.9126 20.812C77.9126 19.5841 77.6468 18.6108 77.1152 17.8921C76.5911 17.1733 75.8761 16.814 74.9702 16.814C74.0793 16.814 73.3717 17.1696 72.8477 17.8809C72.3236 18.5846 72.0615 19.6403 72.0615 21.0479ZM85.5044 14.8486L85.583 16.1177C86.4365 15.1219 87.6045 14.624 89.0869 14.624C90.7116 14.624 91.8234 15.2454 92.4224 16.4883C93.3058 15.2454 94.5487 14.624 96.1509 14.624C97.491 14.624 98.4868 14.9946 99.1382 15.7358C99.797 16.4771 100.134 17.5701 100.149 19.0151V27H97.4199V19.0938C97.4199 18.3226 97.2515 17.7573 96.9146 17.3979C96.5776 17.0386 96.0199 16.8589 95.2412 16.8589C94.6198 16.8589 94.1107 17.0273 93.7139 17.3643C93.3245 17.6937 93.0513 18.1279 92.894 18.667L92.9053 27H90.1763V19.0039C90.1388 17.5739 89.4089 16.8589 87.9863 16.8589C86.8932 16.8589 86.1183 17.3044 85.6616 18.1953V27H82.9326V14.8486H85.5044ZM108.302 27.2246C106.573 27.2246 105.169 26.6818 104.091 25.5962C103.02 24.5031 102.485 23.0506 102.485 21.2388V20.9019C102.485 19.689 102.717 18.6071 103.181 17.6562C103.653 16.6979 104.312 15.953 105.158 15.4214C106.004 14.8898 106.947 14.624 107.988 14.624C109.642 14.624 110.919 15.1519 111.817 16.2075C112.723 17.2632 113.176 18.7568 113.176 20.6885V21.7891H105.236C105.319 22.7923 105.652 23.5859 106.236 24.1699C106.827 24.7539 107.569 25.0459 108.459 25.0459C109.71 25.0459 110.728 24.5405 111.514 23.5298L112.985 24.9336C112.499 25.6598 111.847 26.2251 111.031 26.6294C110.223 27.0262 109.313 27.2246 108.302 27.2246ZM107.977 16.814C107.228 16.814 106.621 17.076 106.157 17.6001C105.701 18.1242 105.409 18.8542 105.281 19.79H110.481V19.5879C110.421 18.6745 110.178 17.9857 109.751 17.5215C109.324 17.0498 108.733 16.814 107.977 16.814Z" fill="white"/>
    </g>
    <defs>
    <filter id="filter0_d" x="0" y="0" width="165" height="48" filterUnits="userSpaceOnUse" color-interpolation-filters="sRGB">
    <feFlood flood-opacity="0" result="BackgroundImageFix"/>
    <feColorMatrix in="SourceAlpha" type="matrix" values="0 0 0 0 0 0 0 0 0 0 0 0 0 0 0 0 0 0 127 0" result="hardAlpha"/>
    <feOffset dy="4"/>
    <feGaussianBlur stdDeviation="2"/>
    <feColorMatrix type="matrix" values="0 0 0 0 0 0 0 0 0 0 0 0 0 0 0 0 0 0 0.25 0"/>
    <feBlend mode="normal" in2="BackgroundImageFix" result="effect1_dropShadow"/>
    <feBlend mode="normal" in="SourceGraphic" in2="effect1_dropShadow" result="shape"/>
    </filter>
    <linearGradient id="paint0_linear" x1="24" y1="40" x2="24" y2="197" gradientUnits="userSpaceOnUse">
    <stop stop-color="#8944FA"/>
    <stop offset="0.473958" stop-color="#4B5DFC"/>
    <stop offset="0.661458" stop-color="#3086FD"/>
    <stop offset="1" stop-color="#00D1FF"/>
    </linearGradient>
    </defs>
</svg>
