<svg width="196" height="144" viewBox="0 0 196 144" fill="none" xmlns="http://www.w3.org/2000/svg">
    <g filter="url(#filter0_d)">
    <rect x="5" width="187" height="112" rx="30" fill="white"/>
    </g>
    <ellipse cx="73.5" cy="39.5" rx="5.5" ry="6.5" fill="#663DBE"/>
    <path d="M131 39.5C131 43.0899 128.538 46 125.5 46C122.462 46 120 43.0899 120 39.5C120 35.9101 122.462 33 125.5 33C128.538 33 131 35.9101 131 39.5Z" fill="#663DBE"/>
    <path d="M60 68C71.6422 78.5647 104.141 93.3554 141 68" stroke="#683EC0" stroke-width="5" stroke-linecap="round" stroke-linejoin="round"/>
    <g filter="url(#filter1_d)">
    <path d="M4 135.5C20.6154 131.799 36.5473 114.566 38.5 103L78 110.5C59.3797 133 25.3018 132.93 4 135.5Z" fill="white"/>
    </g>
    <defs>
    <filter id="filter0_d" x="1" y="0" width="195" height="120" filterUnits="userSpaceOnUse" color-interpolation-filters="sRGB">
    <feFlood flood-opacity="0" result="BackgroundImageFix"/>
    <feColorMatrix in="SourceAlpha" type="matrix" values="0 0 0 0 0 0 0 0 0 0 0 0 0 0 0 0 0 0 127 0"/>
    <feOffset dy="4"/>
    <feGaussianBlur stdDeviation="2"/>
    <feColorMatrix type="matrix" values="0 0 0 0 0 0 0 0 0 0 0 0 0 0 0 0 0 0 0.25 0"/>
    <feBlend mode="normal" in2="BackgroundImageFix" result="effect1_dropShadow"/>
    <feBlend mode="normal" in="SourceGraphic" in2="effect1_dropShadow" result="shape"/>
    </filter>
    <filter id="filter1_d" x="0" y="103" width="82" height="40.5" filterUnits="userSpaceOnUse" color-interpolation-filters="sRGB">
    <feFlood flood-opacity="0" result="BackgroundImageFix"/>
    <feColorMatrix in="SourceAlpha" type="matrix" values="0 0 0 0 0 0 0 0 0 0 0 0 0 0 0 0 0 0 127 0"/>
    <feOffset dy="4"/>
    <feGaussianBlur stdDeviation="2"/>
    <feColorMatrix type="matrix" values="0 0 0 0 0 0 0 0 0 0 0 0 0 0 0 0 0 0 0.25 0"/>
    <feBlend mode="normal" in2="BackgroundImageFix" result="effect1_dropShadow"/>
    <feBlend mode="normal" in="SourceGraphic" in2="effect1_dropShadow" result="shape"/>
    </filter>
    </defs>
</svg>
