<svg width="144" height="32" viewBox="0 0 144 32" fill="none" xmlns="http://www.w3.org/2000/svg">
    <path d="M17.3125 23.5156C17.3125 24.4661 17.1302 25.3581 16.7656 26.1914C16.4141 27.0247 15.9258 27.7539 15.3008 28.3789C14.6758 29.0039 13.9466 29.4987 13.1133 29.8633C12.2799 30.2148 11.388 30.3906 10.4375 30.3906H8.44531C7.49479 30.3906 6.59635 30.2148 5.75 29.8633C4.91667 29.4987 4.1875 29.0039 3.5625 28.3789C2.9375 27.7539 2.44271 27.0247 2.07812 26.1914C1.72656 25.3581 1.55078 24.4661 1.55078 23.5156V8.47656C1.55078 7.52604 1.72656 6.63411 2.07812 5.80078C2.44271 4.96745 2.9375 4.23828 3.5625 3.61328C4.1875 2.98828 4.91667 2.5 5.75 2.14844C6.59635 1.78385 7.49479 1.60156 8.44531 1.60156H10.4375C11.388 1.60156 12.2799 1.78385 13.1133 2.14844C13.9466 2.5 14.6758 2.98828 15.3008 3.61328C15.9258 4.23828 16.4141 4.96745 16.7656 5.80078C17.1302 6.63411 17.3125 7.52604 17.3125 8.47656V9.60938L14.793 10V8.47656C14.793 7.85156 14.6758 7.27214 14.4414 6.73828C14.207 6.19141 13.888 5.71615 13.4844 5.3125C13.0807 4.90885 12.6055 4.58984 12.0586 4.35547C11.5247 4.12109 10.9453 4.00391 10.3203 4.00391H8.5625C7.9375 4.00391 7.35156 4.12109 6.80469 4.35547C6.27083 4.58984 5.79557 4.90885 5.37891 5.3125C4.97526 5.71615 4.65625 6.19141 4.42188 6.73828C4.1875 7.27214 4.07031 7.85156 4.07031 8.47656V23.5156C4.07031 24.1406 4.1875 24.7266 4.42188 25.2734C4.65625 25.8073 4.97526 26.2826 5.37891 26.6992C5.79557 27.1029 6.27083 27.4219 6.80469 27.6562C7.35156 27.8906 7.9375 28.0078 8.5625 28.0078H10.3203C10.9453 28.0078 11.5247 27.8906 12.0586 27.6562C12.6055 27.4219 13.0807 27.1029 13.4844 26.6992C13.888 26.2826 14.207 25.8073 14.4414 25.2734C14.6758 24.7266 14.793 24.1406 14.793 23.5156V21.9922L17.3125 22.4023V23.5156ZM35.4961 24.5117C35.4961 25.319 35.3398 26.0807 35.0273 26.7969C34.7279 27.513 34.3112 28.138 33.7773 28.6719C33.2435 29.2057 32.6185 29.6289 31.9023 29.9414C31.1862 30.2409 30.4245 30.3906 29.6172 30.3906H28.0156C27.2083 30.3906 26.4466 30.2409 25.7305 29.9414C25.0143 29.6289 24.3893 29.2057 23.8555 28.6719C23.3216 28.138 22.8984 27.513 22.5859 26.7969C22.2865 26.0807 22.1367 25.319 22.1367 24.5117V15.4883C22.1367 14.681 22.2865 13.9193 22.5859 13.2031C22.8984 12.487 23.3216 11.862 23.8555 11.3281C24.3893 10.7943 25.0143 10.3776 25.7305 10.0781C26.4466 9.76562 27.2083 9.60938 28.0156 9.60938H29.6172C30.4245 9.60938 31.1862 9.76562 31.9023 10.0781C32.6185 10.3776 33.2435 10.7943 33.7773 11.3281C34.3112 11.862 34.7279 12.487 35.0273 13.2031C35.3398 13.9193 35.4961 14.681 35.4961 15.4883V24.5117ZM33.0938 15.3516C33.0938 14.8698 33.0026 14.4206 32.8203 14.0039C32.638 13.5742 32.3906 13.2031 32.0781 12.8906C31.7656 12.5781 31.3945 12.3307 30.9648 12.1484C30.5482 11.9661 30.099 11.875 29.6172 11.875H28.0156C27.5339 11.875 27.0781 11.9661 26.6484 12.1484C26.2318 12.3307 25.8672 12.5781 25.5547 12.8906C25.2422 13.2031 24.9948 13.5742 24.8125 14.0039C24.6302 14.4206 24.5391 14.8698 24.5391 15.3516V24.6484C24.5391 25.1302 24.6302 25.5859 24.8125 26.0156C24.9948 26.4323 25.2422 26.7969 25.5547 27.1094C25.8672 27.4219 26.2318 27.6693 26.6484 27.8516C27.0781 28.0339 27.5339 28.125 28.0156 28.125H29.6172C30.099 28.125 30.5482 28.0339 30.9648 27.8516C31.3945 27.6693 31.7656 27.4219 32.0781 27.1094C32.3906 26.7969 32.638 26.4323 32.8203 26.0156C33.0026 25.5859 33.0938 25.1302 33.0938 24.6484V15.3516ZM52.8594 30L51.5312 27.9688C50.9844 28.7109 50.3008 29.3034 49.4805 29.7461C48.6602 30.1758 47.7617 30.3906 46.7852 30.3906H46.1797C45.3724 30.3906 44.6107 30.2409 43.8945 29.9414C43.1784 29.6289 42.5534 29.2057 42.0195 28.6719C41.4857 28.138 41.0625 27.513 40.75 26.7969C40.4505 26.0807 40.3008 25.319 40.3008 24.5117V15.4883C40.3008 14.681 40.4505 13.9193 40.75 13.2031C41.0625 12.487 41.4857 11.862 42.0195 11.3281C42.5534 10.7943 43.1784 10.3776 43.8945 10.0781C44.6107 9.76562 45.3724 9.60938 46.1797 9.60938H46.7852C47.6836 9.60938 48.5169 9.79167 49.2852 10.1562C50.0534 10.5208 50.7109 11.0286 51.2578 11.6797V1.99219H53.6602V30H52.8594ZM51.2578 15.3516C51.2578 14.8698 51.1667 14.4206 50.9844 14.0039C50.8021 13.5742 50.5547 13.2031 50.2422 12.8906C49.9297 12.5781 49.5586 12.3307 49.1289 12.1484C48.7122 11.9661 48.263 11.875 47.7812 11.875H46.1797C45.6979 11.875 45.2422 11.9661 44.8125 12.1484C44.3958 12.3307 44.0312 12.5781 43.7188 12.8906C43.4062 13.2031 43.1589 13.5742 42.9766 14.0039C42.7943 14.4206 42.7031 14.8698 42.7031 15.3516V24.6484C42.7031 25.1302 42.7943 25.5859 42.9766 26.0156C43.1589 26.4323 43.4062 26.7969 43.7188 27.1094C44.0312 27.4219 44.3958 27.6693 44.8125 27.8516C45.2422 28.0339 45.6979 28.125 46.1797 28.125H47.7812C48.263 28.125 48.7122 28.0339 49.1289 27.8516C49.5586 27.6693 49.9297 27.4219 50.2422 27.1094C50.5547 26.7969 50.8021 26.4323 50.9844 26.0156C51.1667 25.5859 51.2578 25.1302 51.2578 24.6484V15.3516ZM71.8242 24.5117C71.8242 25.319 71.668 26.0807 71.3555 26.7969C71.056 27.513 70.6393 28.138 70.1055 28.6719C69.5716 29.2057 68.9466 29.6289 68.2305 29.9414C67.5143 30.2409 66.7526 30.3906 65.9453 30.3906H64.3438C63.5365 30.3906 62.7747 30.2409 62.0586 29.9414C61.3424 29.6289 60.7174 29.2057 60.1836 28.6719C59.6497 28.138 59.2266 27.513 58.9141 26.7969C58.6146 26.0807 58.4648 25.319 58.4648 24.5117V15.4883C58.4648 14.681 58.6146 13.9193 58.9141 13.2031C59.2266 12.487 59.6497 11.862 60.1836 11.3281C60.7174 10.7943 61.3424 10.3776 62.0586 10.0781C62.7747 9.76562 63.5365 9.60938 64.3438 9.60938H65.9453C66.7526 9.60938 67.5143 9.76562 68.2305 10.0781C68.9466 10.3776 69.5716 10.7943 70.1055 11.3281C70.6393 11.862 71.056 12.487 71.3555 13.2031C71.668 13.9193 71.8242 14.681 71.8242 15.4883V20.1953H60.8672V24.6484C60.8672 25.1302 60.9583 25.5859 61.1406 26.0156C61.3229 26.4323 61.5703 26.7969 61.8828 27.1094C62.1953 27.4219 62.5599 27.6693 62.9766 27.8516C63.4062 28.0339 63.862 28.125 64.3438 28.125H65.9453C66.4271 28.125 66.8763 28.0339 67.293 27.8516C67.7227 27.6693 68.0938 27.4219 68.4062 27.1094C68.7188 26.7969 68.9661 26.4323 69.1484 26.0156C69.3307 25.5859 69.4219 25.1302 69.4219 24.6484V23.3203L71.8242 23.7109V24.5117ZM69.4219 15.3516C69.4219 14.8698 69.3307 14.4206 69.1484 14.0039C68.9661 13.5742 68.7188 13.2031 68.4062 12.8906C68.0938 12.5781 67.7227 12.3307 67.293 12.1484C66.8763 11.9661 66.4271 11.875 65.9453 11.875H64.3438C63.862 11.875 63.4062 11.9661 62.9766 12.1484C62.5599 12.3307 62.1953 12.5781 61.8828 12.8906C61.5703 13.2031 61.3229 13.5742 61.1406 14.0039C60.9583 14.4206 60.8672 14.8698 60.8672 15.3516V18.3203H69.4219V15.3516ZM96.1406 30H94.832L89.3828 8.92578L89.3047 7.83203L89.1875 8.92578L83.7773 30H82.4688L75.0273 1.99219H77.5469L83.0352 23.2812L83.1133 24.3164L83.1914 23.2812L88.582 1.99219H89.9883L95.3789 23.2812L95.457 24.3164L95.5547 23.2812L101.023 1.99219H103.543L96.1406 30ZM107.352 5.19531V1.99219H110.145V5.19531H107.352ZM107.547 30V10H109.949V30H107.547ZM122.859 30C122.13 30 121.44 29.8633 120.789 29.5898C120.151 29.3164 119.591 28.9388 119.109 28.457C118.641 27.9753 118.263 27.4154 117.977 26.7773C117.703 26.1393 117.566 25.4557 117.566 24.7266V12.2852H113.973V10H117.566V5.19531L119.969 4.80469V10H125.047V12.2852H119.969V24.8438C119.969 25.2474 120.04 25.625 120.184 25.9766C120.34 26.3151 120.548 26.6146 120.809 26.875C121.069 27.1354 121.375 27.3438 121.727 27.5C122.078 27.6432 122.456 27.7148 122.859 27.7148H125.047V30H122.859ZM140.438 30V15.3516C140.438 14.8698 140.346 14.4206 140.164 14.0039C139.982 13.5742 139.734 13.2031 139.422 12.8906C139.109 12.5781 138.738 12.3307 138.309 12.1484C137.892 11.9661 137.443 11.875 136.961 11.875H135.359C134.878 11.875 134.422 11.9661 133.992 12.1484C133.576 12.3307 133.211 12.5781 132.898 12.8906C132.586 13.2031 132.339 13.5742 132.156 14.0039C131.974 14.4206 131.883 14.8698 131.883 15.3516V30H129.48V1.99219H131.883V11.6797C132.43 11.0286 133.087 10.5208 133.855 10.1562C134.624 9.79167 135.457 9.60938 136.355 9.60938H136.961C137.768 9.60938 138.53 9.76562 139.246 10.0781C139.962 10.3776 140.587 10.7943 141.121 11.3281C141.655 11.862 142.072 12.487 142.371 13.2031C142.684 13.9193 142.84 14.681 142.84 15.4883V30H140.438Z" fill="#4C1993"/>
    <path d="M16.7656 26.1914L15.8494 25.7906L15.8443 25.8027L16.7656 26.1914ZM13.1133 29.8633L13.502 30.7847L13.5141 30.7794L13.1133 29.8633ZM5.75 29.8633L5.34918 30.7794L5.35775 30.7832L5.36639 30.7868L5.75 29.8633ZM2.07812 26.1914L1.15668 26.5801L1.16197 26.5922L2.07812 26.1914ZM2.07812 5.80078L1.16189 5.39993L1.15676 5.41208L2.07812 5.80078ZM5.75 2.14844L6.13871 3.06983L6.14562 3.06685L5.75 2.14844ZM13.1133 2.14844L12.7124 3.06467L12.7246 3.0698L13.1133 2.14844ZM16.7656 5.80078L15.8442 6.18952L15.8495 6.2016L16.7656 5.80078ZM17.3125 9.60938L17.4657 10.5976L18.3125 10.4663V9.60938H17.3125ZM14.793 10H13.793V11.167L14.9462 10.9882L14.793 10ZM14.4414 6.73828L13.5222 7.13222L13.5258 7.14027L14.4414 6.73828ZM12.0586 4.35547L11.6566 5.27115L11.6647 5.27461L12.0586 4.35547ZM6.80469 4.35547L6.41075 3.43629L6.4027 3.43983L6.80469 4.35547ZM5.37891 5.3125L4.68311 4.59426L4.67741 4.59978L4.6718 4.60539L5.37891 5.3125ZM4.42188 6.73828L5.33755 7.14029L5.34102 7.1322L4.42188 6.73828ZM4.42188 25.2734L3.5027 25.6674L3.50623 25.6754L4.42188 25.2734ZM5.37891 26.6992L4.66067 27.395L4.67171 27.4064L4.68311 27.4175L5.37891 26.6992ZM6.80469 27.6562L6.40268 28.5719L6.41077 28.5754L6.80469 27.6562ZM12.0586 27.6562L11.6647 26.7371L11.6566 26.7406L12.0586 27.6562ZM13.4844 26.6992L14.1915 27.4063L14.1971 27.4007L14.2026 27.395L13.4844 26.6992ZM14.4414 25.2734L15.3571 25.6754L15.3605 25.6674L14.4414 25.2734ZM14.793 21.9922L14.9536 21.0052L13.793 20.8162V21.9922H14.793ZM17.3125 22.4023H18.3125V21.552L17.4732 21.4153L17.3125 22.4023ZM16.3125 23.5156C16.3125 24.3345 16.1563 25.0893 15.8495 25.7906L17.6818 26.5922C18.1041 25.6268 18.3125 24.5978 18.3125 23.5156H16.3125ZM15.8443 25.8027C15.5417 26.5199 15.1252 27.1403 14.5937 27.6718L16.0079 29.086C16.7263 28.3676 17.2864 27.5296 17.687 26.5801L15.8443 25.8027ZM14.5937 27.6718C14.0594 28.2061 13.4349 28.631 12.7125 28.9471L13.5141 30.7794C14.4583 30.3664 15.2921 29.8018 16.0079 29.086L14.5937 27.6718ZM12.7246 28.9419C12.0205 29.239 11.2614 29.3906 10.4375 29.3906V31.3906C11.5146 31.3906 12.5394 31.1907 13.502 30.7846L12.7246 28.9419ZM10.4375 29.3906H8.44531V31.3906H10.4375V29.3906ZM8.44531 29.3906C7.62146 29.3906 6.85385 29.239 6.13361 28.9398L5.36639 30.7868C6.33886 31.1907 7.36813 31.3906 8.44531 31.3906V29.3906ZM6.15082 28.9471C5.42834 28.631 4.80386 28.2061 4.26961 27.6718L2.85539 29.086C3.57114 29.8018 4.405 30.3664 5.34918 30.7794L6.15082 28.9471ZM4.26961 27.6718C3.73535 27.1375 3.31037 26.5131 2.99428 25.7906L1.16197 26.5922C1.57505 27.5364 2.13965 28.3703 2.85539 29.086L4.26961 27.6718ZM2.99949 25.8027C2.70245 25.0986 2.55078 24.3395 2.55078 23.5156H0.550781C0.550781 24.5927 0.750677 25.6175 1.15676 26.5801L2.99949 25.8027ZM2.55078 23.5156V8.47656H0.550781V23.5156H2.55078ZM2.55078 8.47656C2.55078 7.65264 2.70245 6.89358 2.99949 6.18948L1.15676 5.41208C0.750677 6.37465 0.550781 7.39944 0.550781 8.47656H2.55078ZM2.99428 6.2016C3.31037 5.47912 3.73535 4.85464 4.26961 4.32039L2.85539 2.90617C2.13965 3.62192 1.57505 4.45578 1.16197 5.39996L2.99428 6.2016ZM4.26961 4.32039C4.80115 3.78884 5.42151 3.37237 6.1387 3.0698L5.3613 1.22707C4.41183 1.62763 3.57385 2.18772 2.85539 2.90617L4.26961 4.32039ZM6.14562 3.06685C6.86307 2.7578 7.62646 2.60156 8.44531 2.60156V0.601562C7.36312 0.601562 6.32964 0.80991 5.35438 1.23002L6.14562 3.06685ZM8.44531 2.60156H10.4375V0.601562H8.44531V2.60156ZM10.4375 2.60156C11.2564 2.60156 12.0112 2.75779 12.7125 3.06459L13.5141 1.23228C12.5487 0.809916 11.5196 0.601562 10.4375 0.601562V2.60156ZM12.7246 3.0698C13.4418 3.37237 14.0621 3.78884 14.5937 4.32039L16.0079 2.90617C15.2894 2.18772 14.4515 1.62763 13.502 1.22707L12.7246 3.0698ZM14.5937 4.32039C15.1252 4.85193 15.5417 5.47229 15.8443 6.18948L17.687 5.41208C17.2864 4.46261 16.7263 3.62463 16.0079 2.90617L14.5937 4.32039ZM15.8495 6.2016C16.1563 6.90286 16.3125 7.65766 16.3125 8.47656H18.3125C18.3125 7.39442 18.1041 6.36537 17.6818 5.39996L15.8495 6.2016ZM16.3125 8.47656V9.60938H18.3125V8.47656H16.3125ZM17.1593 8.62118L14.6398 9.01181L14.9462 10.9882L17.4657 10.5976L17.1593 8.62118ZM15.793 10V8.47656H13.793V10H15.793ZM15.793 8.47656C15.793 7.72328 15.651 7.0058 15.3571 6.33629L13.5258 7.14027C13.7006 7.53848 13.793 7.97985 13.793 8.47656H15.793ZM15.3605 6.34436C15.0782 5.68558 14.6889 5.10279 14.1915 4.60539L12.7773 6.01961C13.0872 6.32951 13.3358 6.69723 13.5223 7.1322L15.3605 6.34436ZM14.1915 4.60539C13.6941 4.108 13.1113 3.71866 12.4525 3.43632L11.6647 5.27461C12.0996 5.46103 12.4674 5.70971 12.7773 6.01961L14.1915 4.60539ZM12.4606 3.43983C11.7911 3.1459 11.0736 3.00391 10.3203 3.00391V5.00391C10.817 5.00391 11.2584 5.09629 11.6566 5.27111L12.4606 3.43983ZM10.3203 3.00391H8.5625V5.00391H10.3203V3.00391ZM8.5625 3.00391C7.80903 3.00391 7.08836 3.14593 6.41077 3.43632L7.19861 5.27461C7.61477 5.09626 8.06597 5.00391 8.5625 5.00391V3.00391ZM6.4027 3.43983C5.76051 3.72176 5.18563 4.10744 4.68311 4.59426L6.0747 6.03074C6.40551 5.71027 6.78116 5.45793 7.20668 5.27111L6.4027 3.43983ZM4.6718 4.60539C4.17441 5.10279 3.78506 5.68558 3.50273 6.34436L5.34102 7.1322C5.52744 6.69723 5.77611 6.32951 6.08601 6.01961L4.6718 4.60539ZM3.50623 6.33629C3.2123 7.0058 3.07031 7.72328 3.07031 8.47656H5.07031C5.07031 7.97985 5.1627 7.53848 5.33752 7.14027L3.50623 6.33629ZM3.07031 8.47656V23.5156H5.07031V8.47656H3.07031ZM3.07031 23.5156C3.07031 24.2691 3.21233 24.9898 3.50273 25.6674L5.34102 24.8795C5.16267 24.4634 5.07031 24.0122 5.07031 23.5156H3.07031ZM3.50623 25.6754C3.78817 26.3176 4.17385 26.8925 4.66067 27.395L6.09715 26.0034C5.77667 25.6726 5.52433 25.297 5.33752 24.8714L3.50623 25.6754ZM4.68311 27.4175C5.18563 27.9043 5.76051 28.29 6.4027 28.5719L7.20668 26.7406C6.78116 26.5538 6.40551 26.3015 6.0747 25.981L4.68311 27.4175ZM6.41077 28.5754C7.08836 28.8658 7.80903 29.0078 8.5625 29.0078V27.0078C8.06597 27.0078 7.61477 26.9155 7.19861 26.7371L6.41077 28.5754ZM8.5625 29.0078H10.3203V27.0078H8.5625V29.0078ZM10.3203 29.0078C11.0736 29.0078 11.7911 28.8658 12.4606 28.5719L11.6566 26.7406C11.2584 26.9154 10.817 27.0078 10.3203 27.0078V29.0078ZM12.4525 28.5754C13.1113 28.2931 13.6941 27.9037 14.1915 27.4063L12.7773 25.9921C12.4674 26.302 12.0996 26.5507 11.6647 26.7371L12.4525 28.5754ZM14.2026 27.395C14.6894 26.8925 15.0751 26.3176 15.3571 25.6754L13.5258 24.8714C13.3389 25.297 13.0866 25.6726 12.7661 26.0034L14.2026 27.395ZM15.3605 25.6674C15.6509 24.9898 15.793 24.2691 15.793 23.5156H13.793C13.793 24.0122 13.7006 24.4634 13.5223 24.8795L15.3605 25.6674ZM15.793 23.5156V21.9922H13.793V23.5156H15.793ZM14.6323 22.9792L17.1518 23.3894L17.4732 21.4153L14.9536 21.0052L14.6323 22.9792ZM16.3125 22.4023V23.5156H18.3125V22.4023H16.3125ZM35.0273 26.7969L34.1108 26.3969L34.1077 26.404L34.1048 26.4111L35.0273 26.7969ZM33.7773 28.6719L33.0702 27.9648L33.7773 28.6719ZM31.9023 29.9414L32.2882 30.864L32.2952 30.861L32.3023 30.8579L31.9023 29.9414ZM25.7305 29.9414L25.3305 30.8579L25.3376 30.861L25.3447 30.864L25.7305 29.9414ZM22.5859 26.7969L21.6634 27.1827L21.6663 27.1898L21.6694 27.1968L22.5859 26.7969ZM22.5859 13.2031L21.6694 12.8032L21.6663 12.8102L21.6634 12.8173L22.5859 13.2031ZM25.7305 10.0781L26.1163 11.0007L26.1234 10.9977L26.1304 10.9947L25.7305 10.0781ZM31.9023 10.0781L31.5024 10.9947L31.5094 10.9977L31.5165 11.0007L31.9023 10.0781ZM35.0273 13.2031L34.1048 13.5889L34.1077 13.596L34.1108 13.6031L35.0273 13.2031ZM32.8203 14.0039L31.8997 14.3945L31.9042 14.4047L32.8203 14.0039ZM30.9648 12.1484L30.564 13.0647L30.5743 13.069L30.9648 12.1484ZM26.6484 12.1484L26.2579 11.2278L26.2476 11.2323L26.6484 12.1484ZM24.8125 14.0039L25.7287 14.4048L25.7331 14.3945L24.8125 14.0039ZM24.8125 26.0156L23.8919 26.4062L23.8963 26.4164L24.8125 26.0156ZM26.6484 27.8516L26.2476 28.7678L26.2579 28.7721L26.6484 27.8516ZM30.9648 27.8516L30.5743 26.9309L30.564 26.9354L30.9648 27.8516ZM32.8203 26.0156L33.7365 26.4165L33.7409 26.4062L32.8203 26.0156ZM34.4961 24.5117C34.4961 25.1861 34.3664 25.8112 34.1108 26.3969L35.9439 27.1968C36.3133 26.3503 36.4961 25.452 36.4961 24.5117H34.4961ZM34.1048 26.4111C33.8541 27.0106 33.5094 27.5256 33.0702 27.9648L34.4845 29.379C35.113 28.7505 35.6017 28.0155 35.9499 27.1827L34.1048 26.4111ZM33.0702 27.9648C32.6279 28.4071 32.108 28.7606 31.5024 29.0249L32.3023 30.8579C33.1289 30.4972 33.8591 30.0043 34.4845 29.379L33.0702 27.9648ZM31.5165 29.0188C30.9275 29.2652 30.2974 29.3906 29.6172 29.3906V31.3906C30.5515 31.3906 31.4449 31.2166 32.2882 30.864L31.5165 29.0188ZM29.6172 29.3906H28.0156V31.3906H29.6172V29.3906ZM28.0156 29.3906C27.3354 29.3906 26.7053 29.2652 26.1163 29.0188L25.3447 30.864C26.1879 31.2166 27.0813 31.3906 28.0156 31.3906V29.3906ZM26.1304 29.0249C25.5248 28.7606 25.0049 28.4071 24.5626 27.9648L23.1484 29.379C23.7737 30.0043 24.5039 30.4972 25.3305 30.8579L26.1304 29.0249ZM24.5626 27.9648C24.1202 27.5224 23.7668 27.0026 23.5025 26.3969L21.6694 27.1968C22.0301 28.0235 22.523 28.7536 23.1484 29.379L24.5626 27.9648ZM23.5085 26.4111C23.2622 25.822 23.1367 25.192 23.1367 24.5117H21.1367C21.1367 25.4461 21.3107 26.3394 21.6634 27.1827L23.5085 26.4111ZM23.1367 24.5117V15.4883H21.1367V24.5117H23.1367ZM23.1367 15.4883C23.1367 14.808 23.2622 14.178 23.5085 13.5889L21.6634 12.8173C21.3107 13.6606 21.1367 14.5539 21.1367 15.4883H23.1367ZM23.5025 13.6031C23.7668 12.9974 24.1202 12.4776 24.5626 12.0352L23.1484 10.621C22.523 11.2464 22.0301 11.9765 21.6694 12.8032L23.5025 13.6031ZM24.5626 12.0352C25.0018 11.596 25.5168 11.2514 26.1163 11.0007L25.3447 9.15554C24.5119 9.5038 23.7769 9.9925 23.1484 10.621L24.5626 12.0352ZM26.1304 10.9947C26.7162 10.7391 27.3413 10.6094 28.0156 10.6094V8.60938C27.0754 8.60938 26.177 8.7922 25.3305 9.16159L26.1304 10.9947ZM28.0156 10.6094H29.6172V8.60938H28.0156V10.6094ZM29.6172 10.6094C30.2915 10.6094 30.9166 10.7391 31.5024 10.9947L32.3023 9.16159C31.4558 8.7922 30.5574 8.60938 29.6172 8.60938V10.6094ZM31.5165 11.0007C32.116 11.2514 32.6311 11.596 33.0702 12.0352L34.4845 10.621C33.8559 9.9925 33.1209 9.5038 32.2882 9.15554L31.5165 11.0007ZM33.0702 12.0352C33.5094 12.4744 33.8541 12.9894 34.1048 13.5889L35.9499 12.8173C35.6017 11.9845 35.113 11.2495 34.4845 10.621L33.0702 12.0352ZM34.1108 13.6031C34.3664 14.1888 34.4961 14.8139 34.4961 15.4883H36.4961C36.4961 14.548 36.3133 13.6497 35.9439 12.8032L34.1108 13.6031ZM34.4961 15.4883V24.5117H36.4961V15.4883H34.4961ZM34.0938 15.3516C34.0938 14.7402 33.9773 14.1536 33.7365 13.6031L31.9042 14.4047C32.0279 14.6876 32.0938 14.9994 32.0938 15.3516H34.0938ZM33.7409 13.6134C33.5113 13.0722 33.1936 12.5919 32.7852 12.1835L31.371 13.5977C31.5877 13.8144 31.7648 14.0763 31.8997 14.3945L33.7409 13.6134ZM32.7852 12.1835C32.3769 11.7752 31.8966 11.4575 31.3554 11.2279L30.5743 13.069C30.8925 13.204 31.1544 13.3811 31.371 13.5977L32.7852 12.1835ZM31.3657 11.2323C30.8152 10.9915 30.2286 10.875 29.6172 10.875V12.875C29.9693 12.875 30.2812 12.9408 30.564 13.0646L31.3657 11.2323ZM29.6172 10.875H28.0156V12.875H29.6172V10.875ZM28.0156 10.875C27.4041 10.875 26.8151 10.9915 26.2579 11.2279L27.039 13.069C27.3411 12.9408 27.6636 12.875 28.0156 12.875V10.875ZM26.2476 11.2323C25.7201 11.4631 25.2508 11.7803 24.8476 12.1835L26.2618 13.5977C26.4835 13.376 26.7434 13.1984 27.0493 13.0646L26.2476 11.2323ZM24.8476 12.1835C24.4392 12.5919 24.1215 13.0722 23.8919 13.6134L25.7331 14.3945C25.8681 14.0763 26.0452 13.8144 26.2618 13.5977L24.8476 12.1835ZM23.8963 13.6031C23.6555 14.1536 23.5391 14.7402 23.5391 15.3516H25.5391C25.5391 14.9994 25.6049 14.6876 25.7287 14.4047L23.8963 13.6031ZM23.5391 15.3516V24.6484H25.5391V15.3516H23.5391ZM23.5391 24.6484C23.5391 25.26 23.6555 25.849 23.8919 26.4062L25.7331 25.6251C25.6049 25.3229 25.5391 25.0004 25.5391 24.6484H23.5391ZM23.8963 26.4164C24.1271 26.944 24.4443 27.4132 24.8476 27.8165L26.2618 26.4023C26.04 26.1805 25.8625 25.9206 25.7287 25.6148L23.8963 26.4164ZM24.8476 27.8165C25.2508 28.2197 25.7201 28.5369 26.2476 28.7677L27.0493 26.9354C26.7434 26.8016 26.4835 26.624 26.2618 26.4023L24.8476 27.8165ZM26.2579 28.7721C26.8151 29.0085 27.4041 29.125 28.0156 29.125V27.125C27.6636 27.125 27.3411 27.0592 27.039 26.931L26.2579 28.7721ZM28.0156 29.125H29.6172V27.125H28.0156V29.125ZM29.6172 29.125C30.2286 29.125 30.8152 29.0085 31.3657 28.7677L30.564 26.9354C30.2812 27.0592 29.9693 27.125 29.6172 27.125V29.125ZM31.3554 28.7721C31.8966 28.5425 32.3769 28.2248 32.7852 27.8165L31.371 26.4023C31.1544 26.6189 30.8925 26.796 30.5743 26.931L31.3554 28.7721ZM32.7852 27.8165C33.1885 27.4132 33.5057 26.944 33.7365 26.4164L31.9042 25.6148C31.7704 25.9206 31.5928 26.1805 31.371 26.4023L32.7852 27.8165ZM33.7409 26.4062C33.9773 25.849 34.0938 25.26 34.0938 24.6484H32.0938C32.0938 25.0004 32.0279 25.3229 31.8997 25.6251L33.7409 26.4062ZM34.0938 24.6484V15.3516H32.0938V24.6484H34.0938ZM52.8594 30L52.0224 30.5472L52.3184 31H52.8594V30ZM51.5312 27.9688L52.3682 27.4215L51.5803 26.2164L50.7262 27.3755L51.5312 27.9688ZM49.4805 29.7461L49.9445 30.632L49.9554 30.6261L49.4805 29.7461ZM43.8945 29.9414L43.4946 30.8579L43.5016 30.861L43.5087 30.864L43.8945 29.9414ZM40.75 26.7969L39.8274 27.1827L39.8304 27.1898L39.8335 27.1968L40.75 26.7969ZM40.75 13.2031L39.8335 12.8032L39.8304 12.8102L39.8274 12.8173L40.75 13.2031ZM43.8945 10.0781L44.2803 11.0007L44.2874 10.9977L44.2945 10.9947L43.8945 10.0781ZM49.2852 10.1562L48.8564 11.0597L49.2852 10.1562ZM51.2578 11.6797L50.4921 12.3229L52.2578 14.4249V11.6797H51.2578ZM51.2578 1.99219V0.992188H50.2578V1.99219H51.2578ZM53.6602 1.99219H54.6602V0.992188H53.6602V1.99219ZM53.6602 30V31H54.6602V30H53.6602ZM50.9844 14.0039L50.0637 14.3945L50.0682 14.4047L50.9844 14.0039ZM49.1289 12.1484L48.7281 13.0647L48.7384 13.069L49.1289 12.1484ZM44.8125 12.1484L44.4219 11.2278L44.4117 11.2323L44.8125 12.1484ZM42.9766 14.0039L43.8928 14.4048L43.8971 14.3945L42.9766 14.0039ZM42.9766 26.0156L42.0559 26.4062L42.0604 26.4164L42.9766 26.0156ZM44.8125 27.8516L44.4117 28.7678L44.422 28.7721L44.8125 27.8516ZM49.1289 27.8516L48.7383 26.9309L48.7281 26.9354L49.1289 27.8516ZM50.9844 26.0156L51.9006 26.4165L51.905 26.4062L50.9844 26.0156ZM53.6963 29.4528L52.3682 27.4215L50.6943 28.516L52.0224 30.5472L53.6963 29.4528ZM50.7262 27.3755C50.2679 27.9976 49.6975 28.4926 49.0055 28.8661L49.9554 30.6261C50.9041 30.1141 51.7009 29.4243 52.3363 28.562L50.7262 27.3755ZM49.0165 28.8603C48.3472 29.2108 47.6092 29.3906 46.7852 29.3906V31.3906C47.9143 31.3906 48.9732 31.1407 49.9445 30.6319L49.0165 28.8603ZM46.7852 29.3906H46.1797V31.3906H46.7852V29.3906ZM46.1797 29.3906C45.4995 29.3906 44.8694 29.2652 44.2803 29.0188L43.5087 30.864C44.352 31.2166 45.2453 31.3906 46.1797 31.3906V29.3906ZM44.2945 29.0249C43.6888 28.7606 43.169 28.4071 42.7266 27.9648L41.3124 29.379C41.9378 30.0043 42.6679 30.4972 43.4946 30.8579L44.2945 29.0249ZM42.7266 27.9648C42.2843 27.5224 41.9308 27.0026 41.6665 26.3969L39.8335 27.1968C40.1942 28.0235 40.6871 28.7536 41.3124 29.379L42.7266 27.9648ZM41.6726 26.4111C41.4262 25.822 41.3008 25.192 41.3008 24.5117H39.3008C39.3008 25.4461 39.4748 26.3394 39.8274 27.1827L41.6726 26.4111ZM41.3008 24.5117V15.4883H39.3008V24.5117H41.3008ZM41.3008 15.4883C41.3008 14.808 41.4262 14.178 41.6726 13.5889L39.8274 12.8173C39.4748 13.6606 39.3008 14.5539 39.3008 15.4883H41.3008ZM41.6665 13.6031C41.9308 12.9974 42.2843 12.4776 42.7266 12.0352L41.3124 10.621C40.6871 11.2464 40.1942 11.9765 39.8335 12.8032L41.6665 13.6031ZM42.7266 12.0352C43.1658 11.596 43.6808 11.2514 44.2803 11.0007L43.5087 9.15554C42.6759 9.5038 41.9409 9.9925 41.3124 10.621L42.7266 12.0352ZM44.2945 10.9947C44.8803 10.7391 45.5054 10.6094 46.1797 10.6094V8.60938C45.2394 8.60938 44.3411 8.7922 43.4946 9.16159L44.2945 10.9947ZM46.1797 10.6094H46.7852V8.60938H46.1797V10.6094ZM46.7852 10.6094C47.5439 10.6094 48.2297 10.7623 48.8564 11.0597L49.7139 9.25282C48.8041 8.82108 47.8233 8.60938 46.7852 8.60938V10.6094ZM48.8564 11.0597C49.495 11.3627 50.0376 11.7818 50.4921 12.3229L52.0235 11.0365C51.3843 10.2755 50.6118 9.67895 49.7139 9.25282L48.8564 11.0597ZM52.2578 11.6797V1.99219H50.2578V11.6797H52.2578ZM51.2578 2.99219H53.6602V0.992188H51.2578V2.99219ZM52.6602 1.99219V30H54.6602V1.99219H52.6602ZM53.6602 29H52.8594V31H53.6602V29ZM52.2578 15.3516C52.2578 14.7402 52.1414 14.1536 51.9005 13.6031L50.0682 14.4047C50.192 14.6876 50.2578 14.9994 50.2578 15.3516H52.2578ZM51.905 13.6134C51.6754 13.0722 51.3577 12.5919 50.9493 12.1835L49.5351 13.5977C49.7517 13.8144 49.9288 14.0763 50.0638 14.3945L51.905 13.6134ZM50.9493 12.1835C50.5409 11.7752 50.0607 11.4575 49.5195 11.2279L48.7384 13.069C49.0565 13.204 49.3184 13.3811 49.5351 13.5977L50.9493 12.1835ZM49.5297 11.2323C48.9793 10.9915 48.3927 10.875 47.7812 10.875V12.875C48.1334 12.875 48.4452 12.9408 48.7281 13.0646L49.5297 11.2323ZM47.7812 10.875H46.1797V12.875H47.7812V10.875ZM46.1797 10.875C45.5681 10.875 44.9792 10.9915 44.422 11.2279L45.203 13.069C45.5052 12.9408 45.8277 12.875 46.1797 12.875V10.875ZM44.4117 11.2323C43.8842 11.4631 43.4149 11.7803 43.0116 12.1835L44.4259 13.5977C44.6476 13.376 44.9075 13.1984 45.2133 13.0646L44.4117 11.2323ZM43.0116 12.1835C42.6033 12.5919 42.2856 13.0722 42.056 13.6134L43.8971 14.3945C44.0321 14.0763 44.2092 13.8144 44.4259 13.5977L43.0116 12.1835ZM42.0604 13.6031C41.8196 14.1536 41.7031 14.7402 41.7031 15.3516H43.7031C43.7031 14.9994 43.769 14.6876 43.8927 14.4047L42.0604 13.6031ZM41.7031 15.3516V24.6484H43.7031V15.3516H41.7031ZM41.7031 24.6484C41.7031 25.26 41.8196 25.849 42.056 26.4062L43.8971 25.6251C43.769 25.3229 43.7031 25.0004 43.7031 24.6484H41.7031ZM42.0604 26.4164C42.2912 26.944 42.6084 27.4132 43.0116 27.8165L44.4259 26.4023C44.2041 26.1805 44.0265 25.9206 43.8927 25.6148L42.0604 26.4164ZM43.0116 27.8165C43.4149 28.2197 43.8842 28.5369 44.4117 28.7677L45.2133 26.9354C44.9075 26.8016 44.6476 26.624 44.4259 26.4023L43.0116 27.8165ZM44.422 28.7721C44.9792 29.0085 45.5681 29.125 46.1797 29.125V27.125C45.8277 27.125 45.5052 27.0592 45.203 26.931L44.422 28.7721ZM46.1797 29.125H47.7812V27.125H46.1797V29.125ZM47.7812 29.125C48.3927 29.125 48.9793 29.0085 49.5297 28.7677L48.7281 26.9354C48.4452 27.0592 48.1334 27.125 47.7812 27.125V29.125ZM49.5195 28.7721C50.0607 28.5425 50.5409 28.2248 50.9493 27.8165L49.5351 26.4023C49.3184 26.6189 49.0565 26.796 48.7384 26.931L49.5195 28.7721ZM50.9493 27.8165C51.3525 27.4132 51.6697 26.944 51.9005 26.4164L50.0682 25.6148C49.9344 25.9206 49.7568 26.1805 49.5351 26.4023L50.9493 27.8165ZM51.905 26.4062C52.1414 25.849 52.2578 25.26 52.2578 24.6484H50.2578C50.2578 25.0004 50.192 25.3229 50.0638 25.6251L51.905 26.4062ZM52.2578 24.6484V15.3516H50.2578V24.6484H52.2578ZM71.3555 26.7969L70.4389 26.3969L70.4359 26.404L70.4329 26.4111L71.3555 26.7969ZM70.1055 28.6719L69.3984 27.9648L70.1055 28.6719ZM68.2305 29.9414L68.6163 30.864L68.6234 30.861L68.6304 30.8579L68.2305 29.9414ZM62.0586 29.9414L61.6586 30.8579L61.6657 30.861L61.6728 30.864L62.0586 29.9414ZM58.9141 26.7969L57.9915 27.1827L57.9944 27.1898L57.9975 27.1968L58.9141 26.7969ZM58.9141 13.2031L57.9975 12.8032L57.9944 12.8102L57.9915 12.8173L58.9141 13.2031ZM62.0586 10.0781L62.4444 11.0007L62.4515 10.9977L62.4585 10.9947L62.0586 10.0781ZM68.2305 10.0781L67.8305 10.9947L67.8376 10.9977L67.8447 11.0007L68.2305 10.0781ZM71.3555 13.2031L70.4329 13.5889L70.4359 13.596L70.4389 13.6031L71.3555 13.2031ZM71.8242 20.1953V21.1953H72.8242V20.1953H71.8242ZM60.8672 20.1953V19.1953H59.8672V20.1953H60.8672ZM61.1406 26.0156L60.22 26.4062L60.2245 26.4164L61.1406 26.0156ZM62.9766 27.8516L62.5757 28.7678L62.586 28.7721L62.9766 27.8516ZM67.293 27.8516L66.9024 26.9309L66.8922 26.9354L67.293 27.8516ZM69.1484 26.0156L70.0647 26.4165L70.069 26.4062L69.1484 26.0156ZM69.4219 23.3203L69.5824 22.3333L68.4219 22.1446V23.3203H69.4219ZM71.8242 23.7109H72.8242V22.8604L71.9847 22.7239L71.8242 23.7109ZM69.1484 14.0039L68.2278 14.3945L68.2323 14.4047L69.1484 14.0039ZM67.293 12.1484L66.8921 13.0647L66.9024 13.069L67.293 12.1484ZM62.9766 12.1484L62.586 11.2278L62.5757 11.2323L62.9766 12.1484ZM61.1406 14.0039L62.0568 14.4048L62.0612 14.3945L61.1406 14.0039ZM60.8672 18.3203H59.8672V19.3203H60.8672V18.3203ZM69.4219 18.3203V19.3203H70.4219V18.3203H69.4219ZM70.8242 24.5117C70.8242 25.1861 70.6945 25.8112 70.4389 26.3969L72.272 27.1968C72.6414 26.3503 72.8242 25.452 72.8242 24.5117H70.8242ZM70.4329 26.4111C70.1822 27.0106 69.8375 27.5256 69.3984 27.9648L70.8126 29.379C71.4411 28.7505 71.9298 28.0155 72.278 27.1827L70.4329 26.4111ZM69.3984 27.9648C68.956 28.4071 68.4362 28.7606 67.8305 29.0249L68.6304 30.8579C69.4571 30.4972 70.1872 30.0043 70.8126 29.379L69.3984 27.9648ZM67.8447 29.0188C67.2556 29.2652 66.6255 29.3906 65.9453 29.3906V31.3906C66.8797 31.3906 67.773 31.2166 68.6163 30.864L67.8447 29.0188ZM65.9453 29.3906H64.3438V31.3906H65.9453V29.3906ZM64.3438 29.3906C63.6635 29.3906 63.0335 29.2652 62.4444 29.0188L61.6728 30.864C62.516 31.2166 63.4094 31.3906 64.3438 31.3906V29.3906ZM62.4585 29.0249C61.8529 28.7606 61.3331 28.4071 60.8907 27.9648L59.4765 29.379C60.1018 30.0043 60.832 30.4972 61.6586 30.8579L62.4585 29.0249ZM60.8907 27.9648C60.4483 27.5224 60.0949 27.0026 59.8306 26.3969L57.9975 27.1968C58.3582 28.0235 58.8511 28.7536 59.4765 29.379L60.8907 27.9648ZM59.8366 26.4111C59.5903 25.822 59.4648 25.192 59.4648 24.5117H57.4648C57.4648 25.4461 57.6389 26.3394 57.9915 27.1827L59.8366 26.4111ZM59.4648 24.5117V15.4883H57.4648V24.5117H59.4648ZM59.4648 15.4883C59.4648 14.808 59.5903 14.178 59.8366 13.5889L57.9915 12.8173C57.6389 13.6606 57.4648 14.5539 57.4648 15.4883H59.4648ZM59.8306 13.6031C60.0949 12.9974 60.4483 12.4776 60.8907 12.0352L59.4765 10.621C58.8511 11.2464 58.3582 11.9765 57.9975 12.8032L59.8306 13.6031ZM60.8907 12.0352C61.3299 11.596 61.8449 11.2514 62.4444 11.0007L61.6728 9.15554C60.84 9.5038 60.105 9.9925 59.4765 10.621L60.8907 12.0352ZM62.4585 10.9947C63.0443 10.7391 63.6694 10.6094 64.3438 10.6094V8.60938C63.4035 8.60938 62.5052 8.7922 61.6586 9.16159L62.4585 10.9947ZM64.3438 10.6094H65.9453V8.60938H64.3438V10.6094ZM65.9453 10.6094C66.6196 10.6094 67.2447 10.7391 67.8305 10.9947L68.6304 9.16159C67.7839 8.7922 66.8856 8.60938 65.9453 8.60938V10.6094ZM67.8447 11.0007C68.4442 11.2514 68.9592 11.596 69.3984 12.0352L70.8126 10.621C70.1841 9.9925 69.4491 9.5038 68.6163 9.15554L67.8447 11.0007ZM69.3984 12.0352C69.8375 12.4744 70.1822 12.9894 70.4329 13.5889L72.278 12.8173C71.9298 11.9845 71.4411 11.2495 70.8126 10.621L69.3984 12.0352ZM70.4389 13.6031C70.6945 14.1888 70.8242 14.8139 70.8242 15.4883H72.8242C72.8242 14.548 72.6414 13.6497 72.272 12.8032L70.4389 13.6031ZM70.8242 15.4883V20.1953H72.8242V15.4883H70.8242ZM71.8242 19.1953H60.8672V21.1953H71.8242V19.1953ZM59.8672 20.1953V24.6484H61.8672V20.1953H59.8672ZM59.8672 24.6484C59.8672 25.26 59.9836 25.849 60.22 26.4062L62.0612 25.6251C61.933 25.3229 61.8672 25.0004 61.8672 24.6484H59.8672ZM60.2245 26.4164C60.4553 26.944 60.7725 27.4132 61.1757 27.8165L62.5899 26.4023C62.3682 26.1805 62.1906 25.9206 62.0568 25.6148L60.2245 26.4164ZM61.1757 27.8165C61.5789 28.2197 62.0482 28.5369 62.5757 28.7677L63.3774 26.9354C63.0716 26.8016 62.8117 26.624 62.5899 26.4023L61.1757 27.8165ZM62.586 28.7721C63.1432 29.0085 63.7322 29.125 64.3438 29.125V27.125C63.9918 27.125 63.6693 27.0592 63.3671 26.931L62.586 28.7721ZM64.3438 29.125H65.9453V27.125H64.3438V29.125ZM65.9453 29.125C66.5567 29.125 67.1433 29.0085 67.6938 28.7677L66.8922 26.9354C66.6093 27.0592 66.2974 27.125 65.9453 27.125V29.125ZM67.6835 28.7721C68.2247 28.5425 68.705 28.2248 69.1134 27.8165L67.6991 26.4023C67.4825 26.6189 67.2206 26.796 66.9024 26.931L67.6835 28.7721ZM69.1134 27.8165C69.5166 27.4132 69.8338 26.944 70.0646 26.4164L68.2323 25.6148C68.0985 25.9206 67.9209 26.1805 67.6991 26.4023L69.1134 27.8165ZM70.069 26.4062C70.3054 25.849 70.4219 25.26 70.4219 24.6484H68.4219C68.4219 25.0004 68.356 25.3229 68.2279 25.6251L70.069 26.4062ZM70.4219 24.6484V23.3203H68.4219V24.6484H70.4219ZM69.2614 24.3074L71.6637 24.698L71.9847 22.7239L69.5824 22.3333L69.2614 24.3074ZM70.8242 23.7109V24.5117H72.8242V23.7109H70.8242ZM70.4219 15.3516C70.4219 14.7402 70.3054 14.1536 70.0646 13.6031L68.2323 14.4047C68.356 14.6876 68.4219 14.9994 68.4219 15.3516H70.4219ZM70.069 13.6134C69.8394 13.0722 69.5217 12.5919 69.1134 12.1835L67.6991 13.5977C67.9158 13.8144 68.0929 14.0763 68.2279 14.3945L70.069 13.6134ZM69.1134 12.1835C68.705 11.7752 68.2247 11.4575 67.6835 11.2279L66.9024 13.069C67.2206 13.204 67.4825 13.3811 67.6991 13.5977L69.1134 12.1835ZM67.6938 11.2323C67.1433 10.9915 66.5567 10.875 65.9453 10.875V12.875C66.2974 12.875 66.6093 12.9408 66.8922 13.0646L67.6938 11.2323ZM65.9453 10.875H64.3438V12.875H65.9453V10.875ZM64.3438 10.875C63.7322 10.875 63.1432 10.9915 62.586 11.2279L63.3671 13.069C63.6693 12.9408 63.9918 12.875 64.3438 12.875V10.875ZM62.5757 11.2323C62.0482 11.4631 61.5789 11.7803 61.1757 12.1835L62.5899 13.5977C62.8117 13.376 63.0716 13.1984 63.3774 13.0646L62.5757 11.2323ZM61.1757 12.1835C60.7673 12.5919 60.4496 13.0722 60.22 13.6134L62.0612 14.3945C62.1962 14.0763 62.3733 13.8144 62.5899 13.5977L61.1757 12.1835ZM60.2245 13.6031C59.9836 14.1536 59.8672 14.7402 59.8672 15.3516H61.8672C61.8672 14.9994 61.933 14.6876 62.0568 14.4047L60.2245 13.6031ZM59.8672 15.3516V18.3203H61.8672V15.3516H59.8672ZM60.8672 19.3203H69.4219V17.3203H60.8672V19.3203ZM70.4219 18.3203V15.3516H68.4219V18.3203H70.4219ZM96.1406 30V31H96.9107L97.1074 30.2555L96.1406 30ZM94.832 30L93.8639 30.2503L94.0577 31H94.832V30ZM89.3828 8.92578L88.3854 8.99703L88.3918 9.08791L88.4147 9.17612L89.3828 8.92578ZM89.3047 7.83203L90.3021 7.76078L88.3104 7.7255L89.3047 7.83203ZM89.1875 8.92578L90.1561 9.17444L90.1741 9.10431L90.1818 9.03231L89.1875 8.92578ZM83.7773 30V31H84.5531L84.7459 30.2487L83.7773 30ZM82.4688 30L81.5023 30.2568L81.6997 31H82.4688V30ZM75.0273 1.99219V0.992188H73.727L74.0609 2.24897L75.0273 1.99219ZM77.5469 1.99219L78.5152 1.74255L78.3218 0.992188H77.5469V1.99219ZM83.0352 23.2812L84.0323 23.206L84.0256 23.1175L84.0035 23.0316L83.0352 23.2812ZM83.1133 24.3164L82.1161 24.3917H84.1104L83.1133 24.3164ZM83.1914 23.2812L82.222 23.0358L82.2008 23.1197L82.1942 23.206L83.1914 23.2812ZM88.582 1.99219V0.992188H87.8037L87.6126 1.74672L88.582 1.99219ZM89.9883 1.99219L90.9577 1.74672L90.7666 0.992188H89.9883V1.99219ZM95.3789 23.2812L96.3761 23.206L96.3696 23.1197L96.3483 23.0358L95.3789 23.2812ZM95.457 24.3164L94.4599 24.3917L96.4526 24.4103L95.457 24.3164ZM95.5547 23.2812L94.5861 23.0324L94.5665 23.1088L94.5591 23.1873L95.5547 23.2812ZM101.023 1.99219V0.992188H100.248L100.055 1.74339L101.023 1.99219ZM103.543 1.99219L104.51 2.24771L104.842 0.992188H103.543V1.99219ZM96.1406 29H94.832V31H96.1406V29ZM95.8002 29.7497L90.351 8.67544L88.4147 9.17612L93.8639 30.2503L95.8002 29.7497ZM90.3803 8.85453L90.3021 7.76078L88.3072 7.90328L88.3854 8.99703L90.3803 8.85453ZM88.3104 7.7255L88.1932 8.81925L90.1818 9.03231L90.299 7.93856L88.3104 7.7255ZM88.2189 8.67713L82.8088 29.7513L84.7459 30.2487L90.1561 9.17444L88.2189 8.67713ZM83.7773 29H82.4688V31H83.7773V29ZM83.4352 29.7432L75.9938 1.7354L74.0609 2.24897L81.5023 30.2568L83.4352 29.7432ZM75.0273 2.99219H77.5469V0.992188H75.0273V2.99219ZM76.5785 2.24182L82.0668 23.5309L84.0035 23.0316L78.5152 1.74255L76.5785 2.24182ZM82.038 23.3565L82.1161 24.3917L84.1104 24.2411L84.0323 23.206L82.038 23.3565ZM84.1104 24.3917L84.1886 23.3565L82.1942 23.206L82.1161 24.2411L84.1104 24.3917ZM84.1608 23.5267L89.5514 2.23765L87.6126 1.74672L82.222 23.0358L84.1608 23.5267ZM88.582 2.99219H89.9883V0.992188H88.582V2.99219ZM89.0189 2.23765L94.4095 23.5267L96.3483 23.0358L90.9577 1.74672L89.0189 2.23765ZM94.3817 23.3565L94.4599 24.3917L96.4542 24.2411L96.3761 23.206L94.3817 23.3565ZM96.4526 24.4103L96.5503 23.3752L94.5591 23.1873L94.4614 24.2225L96.4526 24.4103ZM96.5232 23.5301L101.992 2.24099L100.055 1.74339L94.5861 23.0324L96.5232 23.5301ZM101.023 2.99219H103.543V0.992188H101.023V2.99219ZM102.576 1.73667L95.1738 29.7445L97.1074 30.2555L104.51 2.24771L102.576 1.73667ZM107.352 5.19531H106.352V6.19531H107.352V5.19531ZM107.352 1.99219V0.992188H106.352V1.99219H107.352ZM110.145 1.99219H111.145V0.992188H110.145V1.99219ZM110.145 5.19531V6.19531H111.145V5.19531H110.145ZM107.547 30H106.547V31H107.547V30ZM107.547 10V9H106.547V10H107.547ZM109.949 10H110.949V9H109.949V10ZM109.949 30V31H110.949V30H109.949ZM108.352 5.19531V1.99219H106.352V5.19531H108.352ZM107.352 2.99219H110.145V0.992188H107.352V2.99219ZM109.145 1.99219V5.19531H111.145V1.99219H109.145ZM110.145 4.19531H107.352V6.19531H110.145V4.19531ZM108.547 30V10H106.547V30H108.547ZM107.547 11H109.949V9H107.547V11ZM108.949 10V30H110.949V10H108.949ZM109.949 29H107.547V31H109.949V29ZM120.789 29.5898L120.395 30.509L120.402 30.5118L120.789 29.5898ZM119.109 28.457L118.393 29.1545L118.402 29.1641L119.109 28.457ZM117.977 26.7773L117.057 27.1713L117.061 27.1791L117.064 27.1869L117.977 26.7773ZM117.566 12.2852H118.566V11.2852H117.566V12.2852ZM113.973 12.2852H112.973V13.2852H113.973V12.2852ZM113.973 10V9H112.973V10H113.973ZM117.566 10V11H118.566V10H117.566ZM117.566 5.19531L117.406 4.20827L116.566 4.34478V5.19531H117.566ZM119.969 4.80469H120.969V3.62895L119.808 3.81765L119.969 4.80469ZM119.969 10H118.969V11H119.969V10ZM125.047 10H126.047V9H125.047V10ZM125.047 12.2852V13.2852H126.047V12.2852H125.047ZM119.969 12.2852V11.2852H118.969V12.2852H119.969ZM120.184 25.9766L119.258 26.3539L119.266 26.3749L119.276 26.3956L120.184 25.9766ZM121.727 27.5L121.32 28.4138L121.335 28.4202L121.349 28.4261L121.727 27.5ZM125.047 27.7148H126.047V26.7148H125.047V27.7148ZM125.047 30V31H126.047V30H125.047ZM122.859 29C122.259 29 121.701 28.8881 121.176 28.6679L120.402 30.5118C121.18 30.8384 122.002 31 122.859 31V29ZM121.183 28.6707C120.66 28.4464 120.207 28.14 119.816 27.7499L118.402 29.1641C118.976 29.7376 119.642 30.1864 120.395 30.509L121.183 28.6707ZM119.826 27.7597C119.442 27.365 119.129 26.9035 118.889 26.3678L117.064 27.1869C117.397 27.9272 117.839 28.5855 118.393 29.1544L119.826 27.7597ZM118.896 26.3834C118.678 25.8761 118.566 25.3273 118.566 24.7266H116.566C116.566 25.5842 116.728 26.4025 117.057 27.1713L118.896 26.3834ZM118.566 24.7266V12.2852H116.566V24.7266H118.566ZM117.566 11.2852H113.973V13.2852H117.566V11.2852ZM114.973 12.2852V10H112.973V12.2852H114.973ZM113.973 11H117.566V9H113.973V11ZM118.566 10V5.19531H116.566V10H118.566ZM117.727 6.18235L120.129 5.79173L119.808 3.81765L117.406 4.20827L117.727 6.18235ZM118.969 4.80469V10H120.969V4.80469H118.969ZM119.969 11H125.047V9H119.969V11ZM124.047 10V12.2852H126.047V10H124.047ZM125.047 11.2852H119.969V13.2852H125.047V11.2852ZM118.969 12.2852V24.8438H120.969V12.2852H118.969ZM118.969 24.8438C118.969 25.3685 119.062 25.875 119.258 26.3539L121.11 25.5993C121.018 25.375 120.969 25.1263 120.969 24.8438H118.969ZM119.276 26.3956C119.481 26.8399 119.757 27.2372 120.101 27.5821L121.516 26.1679C121.34 25.9919 121.199 25.7903 121.092 25.5575L119.276 26.3956ZM120.101 27.5821C120.453 27.9332 120.862 28.21 121.32 28.4138L122.133 26.5862C121.888 26.4775 121.685 26.3377 121.516 26.1679L120.101 27.5821ZM121.349 28.4261C121.828 28.6212 122.335 28.7148 122.859 28.7148V26.7148C122.577 26.7148 122.328 26.6653 122.104 26.5739L121.349 28.4261ZM122.859 28.7148H125.047V26.7148H122.859V28.7148ZM124.047 27.7148V30H126.047V27.7148H124.047ZM125.047 29H122.859V31H125.047V29ZM140.438 30H139.438V31H140.438V30ZM140.164 14.0039L139.243 14.3945L139.248 14.4047L140.164 14.0039ZM138.309 12.1484L137.908 13.0647L137.918 13.069L138.309 12.1484ZM133.992 12.1484L133.602 11.2278L133.591 11.2323L133.992 12.1484ZM132.156 14.0039L133.072 14.4048L133.077 14.3945L132.156 14.0039ZM131.883 30V31H132.883V30H131.883ZM129.48 30H128.48V31H129.48V30ZM129.48 1.99219V0.992188H128.48V1.99219H129.48ZM131.883 1.99219H132.883V0.992188H131.883V1.99219ZM131.883 11.6797H130.883V14.4249L132.649 12.3229L131.883 11.6797ZM133.855 10.1562L134.284 11.0597L133.855 10.1562ZM139.246 10.0781L138.846 10.9947L138.853 10.9977L138.86 11.0007L139.246 10.0781ZM142.371 13.2031L141.449 13.5889L141.451 13.596L141.455 13.6031L142.371 13.2031ZM142.84 30V31H143.84V30H142.84ZM141.438 30V15.3516H139.438V30H141.438ZM141.438 15.3516C141.438 14.7402 141.321 14.1536 141.08 13.6031L139.248 14.4047C139.372 14.6876 139.438 14.9994 139.438 15.3516H141.438ZM141.085 13.6134C140.855 13.0722 140.537 12.5919 140.129 12.1835L138.715 13.5977C138.931 13.8144 139.109 14.0763 139.243 14.3945L141.085 13.6134ZM140.129 12.1835C139.721 11.7752 139.24 11.4575 138.699 11.2279L137.918 13.069C138.236 13.204 138.498 13.3811 138.715 13.5977L140.129 12.1835ZM138.709 11.2323C138.159 10.9915 137.572 10.875 136.961 10.875V12.875C137.313 12.875 137.625 12.9408 137.908 13.0646L138.709 11.2323ZM136.961 10.875H135.359V12.875H136.961V10.875ZM135.359 10.875C134.748 10.875 134.159 10.9915 133.602 11.2279L134.383 13.069C134.685 12.9408 135.007 12.875 135.359 12.875V10.875ZM133.591 11.2323C133.064 11.4631 132.595 11.7803 132.191 12.1835L133.606 13.5977C133.827 13.376 134.087 13.1984 134.393 13.0646L133.591 11.2323ZM132.191 12.1835C131.783 12.5919 131.465 13.0722 131.236 13.6134L133.077 14.3945C133.212 14.0763 133.389 13.8144 133.606 13.5977L132.191 12.1835ZM131.24 13.6031C130.999 14.1536 130.883 14.7402 130.883 15.3516H132.883C132.883 14.9994 132.949 14.6876 133.072 14.4047L131.24 13.6031ZM130.883 15.3516V30H132.883V15.3516H130.883ZM131.883 29H129.48V31H131.883V29ZM130.48 30V1.99219H128.48V30H130.48ZM129.48 2.99219H131.883V0.992188H129.48V2.99219ZM130.883 1.99219V11.6797H132.883V1.99219H130.883ZM132.649 12.3229C133.103 11.7818 133.646 11.3627 134.284 11.0597L133.427 9.25282C132.529 9.67895 131.756 10.2755 131.117 11.0365L132.649 12.3229ZM134.284 11.0597C134.911 10.7623 135.597 10.6094 136.355 10.6094V8.60938C135.317 8.60938 134.336 8.82108 133.427 9.25282L134.284 11.0597ZM136.355 10.6094H136.961V8.60938H136.355V10.6094ZM136.961 10.6094C137.635 10.6094 138.26 10.7391 138.846 10.9947L139.646 9.16159C138.8 8.7922 137.901 8.60938 136.961 8.60938V10.6094ZM138.86 11.0007C139.46 11.2514 139.975 11.596 140.414 12.0352L141.828 10.621C141.2 9.9925 140.465 9.5038 139.632 9.15554L138.86 11.0007ZM140.414 12.0352C140.853 12.4744 141.198 12.9894 141.449 13.5889L143.294 12.8173C142.945 11.9845 142.457 11.2495 141.828 10.621L140.414 12.0352ZM141.455 13.6031C141.71 14.1888 141.84 14.8139 141.84 15.4883H143.84C143.84 14.548 143.657 13.6497 143.288 12.8032L141.455 13.6031ZM141.84 15.4883V30H143.84V15.4883H141.84ZM142.84 29H140.438V31H142.84V29Z" fill="#4C1993"/>
</svg>
