<svg width="129" height="129" viewBox="0 0 129 129" fill="none" xmlns="http://www.w3.org/2000/svg">
    <rect width="99" height="95" rx="20" fill="#711DDC"/>
    <path fill-rule="evenodd" clip-rule="evenodd" d="M25 100V109C25 120.046 33.9543 129 45 129H109C120.046 129 129 120.046 129 109V48C129 36.9543 120.046 28 109 28H105V43H109C111.761 43 114 45.2386 114 48V109C114 111.761 111.761 114 109 114H45C42.2386 114 40 111.761 40 109V100H25Z" fill="#711DDC"/>
    <path d="M36.8828 51.7422C36.5964 54.776 35.4766 57.1458 33.5234 58.8516C31.5703 60.5443 28.9727 61.3906 25.7305 61.3906C23.4648 61.3906 21.4661 60.8568 19.7344 59.7891C18.0156 58.7083 16.6875 57.1784 15.75 55.1992C14.8125 53.2201 14.3242 50.9219 14.2852 48.3047V45.6484C14.2852 42.9661 14.7604 40.6029 15.7109 38.5586C16.6615 36.5143 18.0221 34.9388 19.793 33.832C21.5768 32.7253 23.6341 32.1719 25.9648 32.1719C29.1029 32.1719 31.6289 33.0247 33.543 34.7305C35.457 36.4362 36.5703 38.8451 36.8828 41.957H31.9609C31.7266 39.9128 31.1276 38.4414 30.1641 37.543C29.2135 36.6315 27.8138 36.1758 25.9648 36.1758C23.8164 36.1758 22.1628 36.9635 21.0039 38.5391C19.8581 40.1016 19.2721 42.3997 19.2461 45.4336V47.9531C19.2461 51.026 19.793 53.3698 20.8867 54.9844C21.9935 56.599 23.6081 57.4062 25.7305 57.4062C27.6706 57.4062 29.1289 56.9701 30.1055 56.0977C31.082 55.2253 31.7005 53.7734 31.9609 51.7422H36.8828ZM56.1797 53.6758C56.1797 52.4258 55.737 51.4622 54.8516 50.7852C53.9792 50.1081 52.3971 49.4245 50.1055 48.7344C47.8138 48.0443 45.9909 47.276 44.6367 46.4297C42.0456 44.8021 40.75 42.6797 40.75 40.0625C40.75 37.7708 41.681 35.8828 43.543 34.3984C45.418 32.9141 47.8464 32.1719 50.8281 32.1719C52.8073 32.1719 54.5716 32.5365 56.1211 33.2656C57.6706 33.9948 58.888 35.0365 59.7734 36.3906C60.6589 37.7318 61.1016 39.2227 61.1016 40.8633H56.1797C56.1797 39.3789 55.7109 38.2201 54.7734 37.3867C53.849 36.5404 52.5208 36.1172 50.7891 36.1172C49.1745 36.1172 47.918 36.4622 47.0195 37.1523C46.1341 37.8424 45.6914 38.806 45.6914 40.043C45.6914 41.0846 46.1732 41.957 47.1367 42.6602C48.1003 43.3503 49.6888 44.0273 51.9023 44.6914C54.1159 45.3424 55.8932 46.0911 57.2344 46.9375C58.5755 47.7708 59.5586 48.7344 60.1836 49.8281C60.8086 50.9089 61.1211 52.1784 61.1211 53.6367C61.1211 56.0065 60.2096 57.8945 58.3867 59.3008C56.5768 60.694 54.1159 61.3906 51.0039 61.3906C48.9466 61.3906 47.0521 61.013 45.3203 60.2578C43.6016 59.4896 42.2604 58.4349 41.2969 57.0938C40.3464 55.7526 39.8711 54.1901 39.8711 52.4062H44.8125C44.8125 54.0208 45.3464 55.2708 46.4141 56.1562C47.4818 57.0417 49.0117 57.4844 51.0039 57.4844C52.7227 57.4844 54.0117 57.1393 54.8711 56.4492C55.7435 55.7461 56.1797 54.8216 56.1797 53.6758ZM80.3203 53.6758C80.3203 52.4258 79.8776 51.4622 78.9922 50.7852C78.1198 50.1081 76.5378 49.4245 74.2461 48.7344C71.9544 48.0443 70.1315 47.276 68.7773 46.4297C66.1862 44.8021 64.8906 42.6797 64.8906 40.0625C64.8906 37.7708 65.8216 35.8828 67.6836 34.3984C69.5586 32.9141 71.987 32.1719 74.9688 32.1719C76.9479 32.1719 78.7122 32.5365 80.2617 33.2656C81.8112 33.9948 83.0286 35.0365 83.9141 36.3906C84.7995 37.7318 85.2422 39.2227 85.2422 40.8633H80.3203C80.3203 39.3789 79.8516 38.2201 78.9141 37.3867C77.9896 36.5404 76.6615 36.1172 74.9297 36.1172C73.3151 36.1172 72.0586 36.4622 71.1602 37.1523C70.2747 37.8424 69.832 38.806 69.832 40.043C69.832 41.0846 70.3138 41.957 71.2773 42.6602C72.2409 43.3503 73.8294 44.0273 76.043 44.6914C78.2565 45.3424 80.0339 46.0911 81.375 46.9375C82.7161 47.7708 83.6992 48.7344 84.3242 49.8281C84.9492 50.9089 85.2617 52.1784 85.2617 53.6367C85.2617 56.0065 84.3503 57.8945 82.5273 59.3008C80.7174 60.694 78.2565 61.3906 75.1445 61.3906C73.0872 61.3906 71.1927 61.013 69.4609 60.2578C67.7422 59.4896 66.401 58.4349 65.4375 57.0938C64.487 55.7526 64.0117 54.1901 64.0117 52.4062H68.9531C68.9531 54.0208 69.487 55.2708 70.5547 56.1562C71.6224 57.0417 73.1523 57.4844 75.1445 57.4844C76.8633 57.4844 78.1523 57.1393 79.0117 56.4492C79.8841 55.7461 80.3203 54.8216 80.3203 53.6758Z" fill="white"/>
</svg>
