<svg width="129" height="129" viewBox="0 0 129 129" fill="none" xmlns="http://www.w3.org/2000/svg">
    <rect width="99" height="95" rx="20" fill="#9F78F0"/>
    <path fill-rule="evenodd" clip-rule="evenodd" d="M25 100V109C25 120.046 33.9543 129 45 129H109C120.046 129 129 120.046 129 109V48C129 36.9543 120.046 28 109 28H105V43H109C111.761 43 114 45.2386 114 48V109C114 111.761 111.761 114 109 114H45C42.2386 114 40 111.761 40 109V100H25Z" fill="#9F78F0"/>
    <path d="M27.791 57H24.0996V47.5225H14.5635V57H10.8574V35.6719H14.5635V44.5488H24.0996V35.6719H27.791V57ZM47.1562 38.6602H40.5059V57H36.8291V38.6602H30.2373V35.6719H47.1562V38.6602ZM54.7734 35.6719L60.9258 52.0195L67.0635 35.6719H71.8535V57H68.1621V49.9688L68.5283 40.5645L62.2295 57H59.5781L53.2939 40.5791L53.6602 49.9688V57H49.9688V35.6719H54.7734ZM79.9541 54.041H89.6367V57H76.248V35.6719H79.9541V54.041Z" fill="white"/>
</svg>
