<svg width="129" height="129" viewBox="0 0 129 129" fill="none" xmlns="http://www.w3.org/2000/svg">
    <rect width="99" height="95" rx="20" fill="#5310AA"/>
    <path fill-rule="evenodd" clip-rule="evenodd" d="M25 100V109C25 120.046 33.9543 129 45 129H109C120.046 129 129 120.046 129 109V48C129 36.9543 120.046 28 109 28H105V43H109C111.761 43 114 45.2386 114 48V109C114 111.761 111.761 114 109 114H45C42.2386 114 40 111.761 40 109V100H25Z" fill="#4A1790"/>
    <path d="M38.6846 28.4531H44.8369V53.3799C44.8369 56.7816 43.7708 59.4834 41.6387 61.4854C39.5228 63.4873 36.7233 64.4883 33.2402 64.4883C29.5293 64.4883 26.6647 63.5524 24.6465 61.6807C22.6283 59.8089 21.6191 57.2048 21.6191 53.8682H27.7715C27.7715 55.7562 28.2354 57.1803 29.1631 58.1406C30.1071 59.0846 31.4661 59.5566 33.2402 59.5566C34.9004 59.5566 36.2188 59.0114 37.1953 57.9209C38.1882 56.8141 38.6846 55.2923 38.6846 53.3555V28.4531ZM70.4961 54.8447C70.4961 53.2822 69.9427 52.0778 68.8359 51.2314C67.7454 50.3851 65.7679 49.5306 62.9033 48.668C60.0387 47.8053 57.7601 46.8451 56.0674 45.7871C52.8285 43.7526 51.209 41.0996 51.209 37.8281C51.209 34.9635 52.3727 32.6035 54.7002 30.748C57.0439 28.8926 60.0794 27.9648 63.8066 27.9648C66.2806 27.9648 68.486 28.4206 70.4229 29.332C72.3597 30.2435 73.8815 31.5456 74.9883 33.2383C76.0951 34.9147 76.6484 36.7783 76.6484 38.8291H70.4961C70.4961 36.9736 69.9102 35.5251 68.7383 34.4834C67.5827 33.4255 65.9225 32.8965 63.7578 32.8965C61.7396 32.8965 60.1689 33.3278 59.0459 34.1904C57.9391 35.0531 57.3857 36.2575 57.3857 37.8037C57.3857 39.1058 57.988 40.1963 59.1924 41.0752C60.3968 41.9378 62.3825 42.7842 65.1494 43.6143C67.9163 44.4281 70.138 45.3639 71.8145 46.4219C73.4909 47.4635 74.7197 48.668 75.501 50.0352C76.2822 51.3861 76.6729 52.973 76.6729 54.7959C76.6729 57.7581 75.5335 60.1182 73.2549 61.876C70.9925 63.6175 67.9163 64.4883 64.0264 64.4883C61.4548 64.4883 59.0866 64.0163 56.9219 63.0723C54.7734 62.112 53.097 60.7936 51.8926 59.1172C50.7044 57.4408 50.1104 55.4876 50.1104 53.2578H56.2871C56.2871 55.276 56.9544 56.8385 58.2891 57.9453C59.6237 59.0521 61.5361 59.6055 64.0264 59.6055C66.1748 59.6055 67.7861 59.1742 68.8604 58.3115C69.9508 57.4326 70.4961 56.277 70.4961 54.8447Z" fill="white"/>
</svg>
